<svg width="72" height="34" viewBox="0 0 72 34" fill="none" xmlns="http://www.w3.org/2000/svg">
<path d="M26.6 7.96C26.6 9.61333 26.1467 11.0933 25.24 12.4C24.3333 13.68 23.0933 14.7467 21.52 15.6C22.5333 16.2933 23.3333 17.1467 23.92 18.16C24.5333 19.1467 24.84 20.24 24.84 21.44C24.84 22.88 24.4 24.3067 23.52 25.72C22.6667 27.1067 21.52 28.3467 20.08 29.44C18.64 30.5067 17 31.3733 15.16 32.04C13.32 32.7067 11.44 33.04 9.52 33.04C7.44 33.04 5.61333 32.64 4.04 31.84C2.49333 31.0667 1.28 29.96 0.4 28.52C0.666667 27.72 1.01333 26.7333 1.44 25.56C1.89333 24.36 2.38667 23.1067 2.92 21.8C3.45333 20.4667 3.98667 19.1467 4.52 17.84C5.08 16.5333 5.6 15.36 6.08 14.32C7.09333 12.0533 8 10.1733 8.8 8.68C9.6 7.18666 10.3333 6 11 5.12C9.53333 5.57333 8.2 6.09333 7 6.68C5.8 7.24 4.92 7.78666 4.36 8.32C4.12 8.16 3.86667 7.92 3.6 7.6C3.36 7.28 3.12 6.93333 2.88 6.56C2.66667 6.16 2.48 5.76 2.32 5.36C2.18667 4.96 2.10667 4.6 2.08 4.28C2.77333 3.8 3.66667 3.34667 4.76 2.92C5.88 2.46667 7.09333 2.08 8.4 1.76C9.70667 1.44 11.04 1.18666 12.4 0.999999C13.7867 0.813332 15.1067 0.719998 16.36 0.719998C19.56 0.719998 22.0667 1.36 23.88 2.64C25.6933 3.92 26.6 5.69333 26.6 7.96ZM11.36 17.52C10.8533 17.28 10.3867 16.92 9.96 16.44C9.34667 17.8 8.76 19.1333 8.2 20.44C7.66667 21.7467 7.18667 22.96 6.76 24.08C6.33333 25.2 5.98667 26.1733 5.72 27C5.45333 27.8267 5.30667 28.4267 5.28 28.8C5.65333 29.0133 6.09333 29.1733 6.6 29.28C7.13333 29.3867 7.78667 29.44 8.56 29.44C10.3733 29.44 12.1067 29.1867 13.76 28.68C15.4133 28.1733 16.8667 27.4933 18.12 26.64C19.3733 25.76 20.3733 24.76 21.12 23.64C21.8667 22.52 22.24 21.3467 22.24 20.12C22.24 18.36 21.48 17.0933 19.96 16.32C17.88 17.1733 15.5333 17.6 12.92 17.6C12.5467 17.6 12.2533 17.6 12.04 17.6C11.8533 17.6 11.6267 17.5733 11.36 17.52ZM19.12 3.64C18.56 3.64 17.96 3.68 17.32 3.76C16.7067 3.81333 16.0533 3.90666 15.36 4.04C15.4667 4.14666 15.5467 4.26666 15.6 4.4C15.68 4.50667 15.7467 4.62667 15.8 4.76C15.56 5.08 15.2667 5.54667 14.92 6.16C14.5733 6.77333 14.1867 7.49333 13.76 8.32C13.3333 9.12 12.88 10.0133 12.4 11C11.9467 11.9867 11.48 13 11 14.04C11.4533 13.9333 12 13.8533 12.64 13.8C13.3067 13.72 13.96 13.68 14.6 13.68C14.9467 13.68 15.28 13.6933 15.6 13.72C15.9467 13.7467 16.28 13.7867 16.6 13.84C17.88 13.6267 19.0267 13.32 20.04 12.92C21.08 12.4933 21.9733 12.0133 22.72 11.48C23.4667 10.92 24.04 10.3067 24.44 9.64C24.84 8.97333 25.04 8.26667 25.04 7.52C25.04 6.24 24.5333 5.28 23.52 4.64C22.5067 3.97333 21.04 3.64 19.12 3.64ZM28.75 31.52C28.3233 31.4667 27.87 31.28 27.39 30.96C26.9367 30.6667 26.6433 30.3333 26.51 29.96C26.51 29.64 26.55 29.2267 26.63 28.72C26.7367 28.2133 26.8567 27.7067 26.99 27.2C27.1233 26.6667 27.2567 26.1733 27.39 25.72C27.5233 25.24 27.6167 24.88 27.67 24.64C27.99 24.64 28.39 24.72 28.87 24.88C29.3767 25.04 29.8833 25.2667 30.39 25.56C30.9233 25.8267 31.4167 26.1467 31.87 26.52C32.35 26.8667 32.71 27.2267 32.95 27.6C32.71 28.1333 32.4033 28.64 32.03 29.12C31.6567 29.6 31.2567 30.0133 30.83 30.36C30.43 30.7333 30.0433 31.0133 29.67 31.2C29.2967 31.4133 28.99 31.52 28.75 31.52ZM55.8784 0.879998C56.3851 1.09333 56.9051 1.37333 57.4384 1.72C57.9718 2.04 58.4651 2.37333 58.9184 2.72C59.3718 3.06667 59.7451 3.41333 60.0384 3.76C60.3584 4.08 60.5318 4.34666 60.5584 4.56C60.1051 4.45333 59.6518 4.38667 59.1984 4.36C58.7451 4.30667 58.3318 4.28 57.9584 4.28C56.7584 4.28 55.5584 4.57333 54.3584 5.16C53.1851 5.74667 52.0651 6.54667 50.9984 7.56C49.9318 8.57333 48.9451 9.76 48.0384 11.12C47.1318 12.48 46.3451 13.9333 45.6784 15.48C45.0384 17.0267 44.5318 18.6267 44.1584 20.28C43.7851 21.9333 43.5984 23.56 43.5984 25.16C43.5984 27.24 43.9451 28.7867 44.6384 29.8C45.3318 30.8133 46.3451 31.32 47.6784 31.32C48.3184 31.32 49.0118 31.1867 49.7584 30.92C50.5051 30.68 51.2651 30.3333 52.0384 29.88C52.8118 29.4267 53.5718 28.88 54.3184 28.24C55.0651 27.6 55.7584 26.8933 56.3984 26.12C57.3318 25 58.1718 23.7333 58.9184 22.32C59.6651 20.88 60.2918 19.36 60.7984 17.76C61.3318 16.16 61.7318 14.52 61.9984 12.84C62.2918 11.1333 62.4384 9.46667 62.4384 7.84C62.4384 7.2 62.4251 6.66667 62.3984 6.24C62.3718 5.78667 62.3318 5.41333 62.2784 5.12C62.2518 4.8 62.2251 4.54667 62.1984 4.36C62.1718 4.17333 62.1451 4.01333 62.1184 3.88C62.4384 4.04 62.7851 4.24 63.1584 4.48C63.5584 4.69333 63.9184 5.02666 64.2384 5.48C64.5851 5.90667 64.8651 6.48 65.0784 7.2C65.3184 7.92 65.4384 8.85333 65.4384 10C65.4384 11.8667 65.2118 13.7067 64.7584 15.52C64.3318 17.3067 63.7184 19.0133 62.9184 20.64C62.1451 22.2667 61.2251 23.7867 60.1584 25.2C59.0918 26.6133 57.9451 27.8533 56.7184 28.92C55.1184 30.3333 53.4118 31.4267 51.5984 32.2C49.7851 32.9733 48.0384 33.36 46.3584 33.36C43.9051 33.36 42.0251 32.5733 40.7184 31C39.4384 29.4533 38.7984 27.16 38.7984 24.12C38.7984 22.4933 38.9718 20.7733 39.3184 18.96C39.6918 17.1467 40.1984 15.36 40.8384 13.6C41.5051 11.84 42.2918 10.1733 43.1984 8.6C44.1051 7 45.0918 5.6 46.1584 4.4C47.2518 3.17333 48.4118 2.2 49.6384 1.48C50.8918 0.759999 52.1718 0.4 53.4784 0.4C53.9051 0.4 54.3051 0.439999 54.6784 0.519998C55.0518 0.573332 55.4518 0.693332 55.8784 0.879998ZM67.3047 31.52C66.878 31.4667 66.4247 31.28 65.9447 30.96C65.4914 30.6667 65.198 30.3333 65.0647 29.96C65.0647 29.64 65.1047 29.2267 65.1847 28.72C65.2914 28.2133 65.4114 27.7067 65.5447 27.2C65.678 26.6667 65.8114 26.1733 65.9447 25.72C66.078 25.24 66.1714 24.88 66.2247 24.64C66.5447 24.64 66.9447 24.72 67.4247 24.88C67.9314 25.04 68.438 25.2667 68.9447 25.56C69.478 25.8267 69.9714 26.1467 70.4247 26.52C70.9047 26.8667 71.2647 27.2267 71.5047 27.6C71.2647 28.1333 70.958 28.64 70.5847 29.12C70.2114 29.6 69.8114 30.0133 69.3847 30.36C68.9847 30.7333 68.598 31.0133 68.2247 31.2C67.8514 31.4133 67.5447 31.52 67.3047 31.52Z" fill="#A6095E" fill-opacity="0.76"/>
</svg>
