<svg width="210" height="34" viewBox="0 0 210 34" fill="none" xmlns="http://www.w3.org/2000/svg">
<g filter="url(#filter0_i_1_2)">
<path d="M4.64 33.28C3.62667 33.28 2.62667 32.9333 1.64 32.24C0.573333 31.4933 0.04 30.6133 0.04 29.6C0.04 28.3467 0.693333 27.4 2 26.76C2.98667 26.2533 4.18667 26 5.6 26C6.34667 26 7.13333 26.0667 7.96 26.2C8.78667 26.3333 9.66667 26.5333 10.6 26.8C12.5467 24.4533 14.2533 21.4933 15.72 17.92C15.5333 17.3067 15.3867 16.7733 15.28 16.32C15.2 15.84 15.16 15.4267 15.16 15.08C15.16 14.12 15.3467 13.64 15.72 13.64C16.1467 13.64 16.52 14.0667 16.84 14.92C17.8 13.0267 18.76 9.76 19.72 5.12C14.1733 5.30667 9.92 6.92 6.96 9.96C5.89333 11.0267 5.36 12.24 5.36 13.6C5.36 14.6667 5.72 15.64 6.44 16.52C7.08 17.32 7.93333 17.9333 9 18.36C9.16 18.4133 9.37333 18.48 9.64 18.56C9.90667 18.64 10.2133 18.72 10.56 18.8C10.72 18.8267 10.8 18.88 10.8 18.96C10.8 19.0933 10.7067 19.16 10.52 19.16L10.4 19.12C8.74667 18.9867 7.2 18.3067 5.76 17.08C4.18667 15.7467 3.4 14.28 3.4 12.68C3.4 11.48 3.89333 10.3867 4.88 9.4C6.56 7.66667 8.89333 6.38667 11.88 5.56C14.36 4.84 17.0267 4.48 19.88 4.48C19.9333 3.92 20.0133 3.34667 20.12 2.76C20.2533 2.14667 20.4 1.53333 20.56 0.919999C20.6667 0.946665 20.72 1.25333 20.72 1.84C20.72 2.18667 20.6933 2.58667 20.64 3.04C20.5867 3.46667 20.5067 3.94667 20.4 4.48C21.4133 4.50666 22.4 4.57333 23.36 4.68C24.3467 4.76 25.2933 4.90667 26.2 5.12C27.8267 3.62667 29.48 2.88 31.16 2.88C32.1467 2.88 32.9733 3.22666 33.64 3.92C34.3067 4.61333 34.64 5.45333 34.64 6.44C34.64 6.81333 34.5733 7 34.44 7C34.3333 7 34.24 6.62667 34.16 5.88C34 4.68 33.1333 4.08 31.56 4.08C30.4933 4.08 29.3333 4.58667 28.08 5.6C29.7333 6.10666 31.1467 6.82667 32.32 7.76C33.7867 8.90667 34.52 10.2267 34.52 11.72C34.52 13.5333 33.48 14.96 31.4 16C29.8 16.8267 27.9867 17.2933 25.96 17.4C31.48 19.96 34.24 22.9867 34.24 26.48C34.24 28.1333 33.5467 29.52 32.16 30.64C30.8 31.76 29.2667 32.32 27.56 32.32C25 32.32 22.7333 32 20.76 31.36L14.44 28.76C13.6933 29.64 12.96 30.3733 12.24 30.96C11.5467 31.5733 10.8533 32.0267 10.16 32.32C8.8 32.96 6.96 33.28 4.64 33.28ZM13.24 27.68C14.3333 26.48 15.5733 24.4 16.96 21.44C17.6 20.0533 18.24 18.68 18.88 17.32C19.52 15.9333 20.1733 14.5467 20.84 13.16C21.6933 11.4533 22.52 9.97333 23.32 8.72C24.1467 7.46667 24.9467 6.42667 25.72 5.6C24.0133 5.28 22.3067 5.12 20.6 5.12H20.28C19.72 7.70667 18.8 10.8667 17.52 14.6C17.8933 14.3867 18.1733 14.28 18.36 14.28C18.5733 14.28 18.68 14.4133 18.68 14.68C18.68 15.4267 17.8133 16.6 16.08 18.2C15.3333 19.9067 14.5333 21.4933 13.68 22.96C12.8533 24.4 11.9467 25.72 10.96 26.92C11.3333 27.0267 11.7067 27.1467 12.08 27.28C12.48 27.4133 12.8667 27.5467 13.24 27.68ZM27.28 31.48C30.88 31.48 32.68 30.2533 32.68 27.8C32.68 24.52 30.4533 21.8 26 19.64C25.7333 19.5333 25.4 19.4 25 19.24C24.6 19.0533 24.1333 18.84 23.6 18.6C23.52 18.5467 23.48 18.4133 23.48 18.2C23.48 17.4533 23.8667 17 24.64 16.84H25.44C25.68 16.8133 25.92 16.7867 26.16 16.76C26.4 16.7333 26.6267 16.7067 26.84 16.68C28.4133 16.3867 29.6933 15.8533 30.68 15.08C31.9067 14.1733 32.52 13 32.52 11.56C32.52 10.2533 32 9.08 30.96 8.04C30.0533 7.18666 28.92 6.53333 27.56 6.08C25.96 7.54667 24.4267 9.77333 22.96 12.76L19.24 20.92C17.7733 24.0933 16.3333 26.52 14.92 28.2L20.96 30.36C23.2267 31.1067 25.3333 31.48 27.28 31.48ZM4.92 32.36C6.30667 32.36 7.78667 31.9467 9.36 31.12C10.9867 30.2933 12.16 29.3333 12.88 28.24C12.5333 28.0533 12.1733 27.88 11.8 27.72C11.4533 27.56 11.0667 27.4133 10.64 27.28C9.06667 29.1733 7.70667 30.12 6.56 30.12C6 30.12 5.72 29.96 5.72 29.64C5.72 29.5067 5.8 29.44 5.96 29.44C6.01333 29.44 6.12 29.4533 6.28 29.48C6.44 29.5333 6.56 29.56 6.64 29.56C7.65333 29.56 8.86667 28.7733 10.28 27.2C8.57333 26.64 6.94667 26.36 5.4 26.36C4.30667 26.36 3.32 26.5467 2.44 26.92C1.32 27.4 0.76 28.1467 0.76 29.16C0.76 30.12 1.22667 30.9067 2.16 31.52C3.01333 32.08 3.93333 32.36 4.92 32.36ZM44.4863 29.16C43.7663 29.16 43.2063 28.7867 42.8063 28.04C42.4863 27.4267 42.3263 26.72 42.3263 25.92C42.3263 25.52 42.3529 25.08 42.4063 24.6C42.4863 24.0933 42.5929 23.5467 42.7263 22.96C41.0463 26.6933 39.3129 28.56 37.5263 28.56C36.4329 28.56 35.8862 27.8533 35.8862 26.44C35.8862 24.1733 36.9796 21.8267 39.1663 19.4C41.3796 16.92 43.5796 15.68 45.7663 15.68C46.8063 15.68 47.3263 16.1333 47.3263 17.04C47.3263 18.16 46.5796 19.28 45.0863 20.4C44.3129 22.32 43.9263 24.2933 43.9263 26.32C43.9263 27.84 44.2596 28.6 44.9263 28.6C45.8596 28.6 47.4596 26.92 49.7263 23.56C49.8863 23.3467 50.0063 23.24 50.0863 23.24C50.1663 23.24 50.2063 23.2933 50.2063 23.4C50.2063 23.5333 50.1529 23.6667 50.0463 23.8C47.6463 27.3733 45.7929 29.16 44.4863 29.16ZM37.6863 27.32C39.3663 27.32 40.9929 25.4533 42.5663 21.72C42.3529 21.7733 42.1529 21.8267 41.9663 21.88C41.8063 21.9067 41.6596 21.92 41.5263 21.92C41.4196 21.92 41.3663 21.88 41.3663 21.8C41.3663 21.6667 41.5529 21.5333 41.9263 21.4L43.1663 20.68C43.2196 20.2267 43.4996 19.64 44.0063 18.92C44.5129 18.1733 44.9929 17.8 45.4463 17.8C45.6063 17.8 45.6863 17.92 45.6863 18.16C45.6863 18.3467 45.6196 18.64 45.4863 19.04C45.9129 18.4533 46.1263 17.88 46.1263 17.32C46.1263 16.7067 45.8463 16.4 45.2863 16.4C43.9529 16.4 42.2063 17.72 40.0463 20.36C37.8863 22.9467 36.8063 24.96 36.8063 26.4C36.8063 27.0133 37.0996 27.32 37.6863 27.32ZM51.4103 29.12C51.2236 29.12 50.9836 29.04 50.6903 28.88C50.397 28.6933 50.2503 28.52 50.2503 28.36L50.7303 27.28C51.1836 26.24 51.6103 25.2267 52.0103 24.24C52.437 23.2267 52.7836 22.2133 53.0503 21.2C53.317 20.2933 53.4503 19.1733 53.4503 17.84C53.3703 18.1067 53.197 18.4933 52.9303 19C52.6636 19.5067 52.3036 20.1467 51.8503 20.92C51.4236 21.6667 51.037 22.2933 50.6903 22.8C50.3703 23.28 50.1036 23.6667 49.8903 23.96C49.8903 23.9867 49.8636 24 49.8103 24C49.677 24 49.6103 23.9467 49.6103 23.84C49.6103 23.7867 49.6236 23.7467 49.6503 23.72L50.8903 21.76C51.6103 20.6133 52.1836 19.5733 52.6103 18.64C53.037 17.68 53.3436 16.84 53.5303 16.12C53.6903 15.4267 53.957 15.08 54.3303 15.08C54.757 15.08 54.9703 15.6133 54.9703 16.68C54.9703 18.6 54.357 20.96 53.1303 23.76C54.5703 21.9467 55.5703 20.7467 56.1303 20.16C57.6503 18.5333 58.837 17.72 59.6903 17.72C60.5436 17.72 60.9703 18.28 60.9703 19.4C60.9703 20.1733 60.757 20.8533 60.3303 21.44C59.8236 22.1867 59.357 22.56 58.9303 22.56C58.8503 22.56 58.8103 22.5067 58.8103 22.4C58.8103 22.4 58.957 22.0667 59.2503 21.4C59.5436 20.7333 59.6903 20.16 59.6903 19.68C59.6903 18.96 59.4636 18.6 59.0103 18.6C58.317 18.6 57.277 19.4133 55.8903 21.04C55.3036 21.7067 54.797 22.3333 54.3703 22.92C53.9436 23.48 53.597 23.9867 53.3303 24.44C53.3036 24.52 53.1703 24.84 52.9303 25.4C52.6903 25.96 52.3836 26.7867 52.0103 27.88L51.6103 29.04C51.557 29.0933 51.4903 29.12 51.4103 29.12ZM68.8222 29.16C68.1022 29.16 67.5422 28.7867 67.1422 28.04C66.8222 27.4267 66.6622 26.72 66.6622 25.92C66.6622 25.52 66.6889 25.08 66.7422 24.6C66.8222 24.0933 66.9289 23.5467 67.0622 22.96C65.3822 26.6933 63.6489 28.56 61.8622 28.56C60.7689 28.56 60.2222 27.8533 60.2222 26.44C60.2222 24.1733 61.3155 21.8267 63.5022 19.4C65.7155 16.92 67.9155 15.68 70.1022 15.68C71.1422 15.68 71.6622 16.1333 71.6622 17.04C71.6622 18.16 70.9155 19.28 69.4222 20.4C68.6489 22.32 68.2622 24.2933 68.2622 26.32C68.2622 27.84 68.5955 28.6 69.2622 28.6C70.1955 28.6 71.7955 26.92 74.0622 23.56C74.2222 23.3467 74.3422 23.24 74.4222 23.24C74.5022 23.24 74.5422 23.2933 74.5422 23.4C74.5422 23.5333 74.4889 23.6667 74.3822 23.8C71.9822 27.3733 70.1289 29.16 68.8222 29.16ZM62.0222 27.32C63.7022 27.32 65.3289 25.4533 66.9022 21.72C66.6889 21.7733 66.4889 21.8267 66.3022 21.88C66.1422 21.9067 65.9955 21.92 65.8622 21.92C65.7555 21.92 65.7022 21.88 65.7022 21.8C65.7022 21.6667 65.8889 21.5333 66.2622 21.4L67.5022 20.68C67.5555 20.2267 67.8355 19.64 68.3422 18.92C68.8489 18.1733 69.3289 17.8 69.7822 17.8C69.9422 17.8 70.0222 17.92 70.0222 18.16C70.0222 18.3467 69.9555 18.64 69.8222 19.04C70.2489 18.4533 70.4622 17.88 70.4622 17.32C70.4622 16.7067 70.1822 16.4 69.6222 16.4C68.2889 16.4 66.5422 17.72 64.3822 20.36C62.2222 22.9467 61.1422 24.96 61.1422 26.4C61.1422 27.0133 61.4355 27.32 62.0222 27.32ZM84.5863 30.52C83.3329 30.52 81.8796 29.8 80.2263 28.36C78.9729 27.2667 77.8529 26.0133 76.8663 24.6L75.3463 27.08C74.7063 28.0933 74.0929 28.84 73.5062 29.32C73.2929 29.9333 72.8796 30.24 72.2662 30.24C71.9729 30.24 71.8262 30.1333 71.8262 29.92C71.8262 29.1733 72.5996 26.8133 74.1463 22.84L73.3862 22.92C73.2262 22.92 73.1462 22.8933 73.1462 22.84C73.1462 22.4667 73.5462 22.2667 74.3463 22.24C74.7729 21.2267 75.2263 20.1333 75.7063 18.96C76.1863 17.76 76.7063 16.5067 77.2663 15.2C76.0396 15.8667 75.1596 16.2 74.6263 16.2C74.5196 16.2 74.4663 16.16 74.4663 16.08C74.4663 15.8133 74.6529 15.6 75.0263 15.44L75.7063 15.12C76.4796 14.7467 77.1729 14.3333 77.7863 13.88C78.1329 13.1067 78.5596 12.1333 79.0663 10.96C79.5996 9.76 80.2396 8.36 80.9863 6.76C81.1196 6.41333 81.2929 6 81.5063 5.52C81.7463 5.04 82.0129 4.46667 82.3063 3.8C82.5996 3.18666 83.2263 2.88 84.1862 2.88C84.6929 2.88 84.9463 3.02666 84.9463 3.32C84.9463 3.42667 84.8263 3.78667 84.5863 4.4C84.2129 5.41333 83.7063 6.53333 83.0663 7.76C82.4529 8.98667 81.7063 10.3067 80.8263 11.72C80.6929 11.9067 80.5196 12.1467 80.3063 12.44C80.1196 12.7333 79.8929 13.08 79.6263 13.48L78.3463 15.96C77.6796 17.2667 76.7196 19.3067 75.4663 22.08C75.9996 21.5733 76.3463 21.32 76.5063 21.32C76.7196 21.32 76.9063 21.4667 77.0663 21.76C77.1196 21.7333 77.2396 21.6933 77.4263 21.64C77.6396 21.56 77.9063 21.4533 78.2263 21.32C78.3329 21.1067 78.4663 20.8533 78.6263 20.56C78.8129 20.24 79.0263 19.8667 79.2663 19.44C79.5863 18.88 79.9329 18.3333 80.3063 17.8C80.7063 17.2667 81.1329 16.7467 81.5863 16.24C82.8396 14.8267 83.8663 14.12 84.6663 14.12C85.5196 14.12 85.9463 15.0133 85.9463 16.8C85.9463 19.0133 83.5196 20.68 78.6663 21.8C78.5063 22.12 78.2263 22.56 77.8263 23.12C78.6529 24.5867 79.6529 25.9333 80.8263 27.16C82.3729 28.7867 83.7596 29.6 84.9863 29.6C85.5196 29.6 85.9729 29.4133 86.3463 29.04C86.7729 28.6667 86.9996 28.48 87.0263 28.48C87.1329 28.48 87.1863 28.5333 87.1863 28.64C87.1863 28.6933 87.1596 28.8 87.1063 28.96C86.4663 30 85.6263 30.52 84.5863 30.52ZM79.0263 21.12C82.3329 19.92 83.9863 18.4 83.9863 16.56C83.9863 15.8133 83.8129 15.44 83.4663 15.44C82.8796 15.44 81.7329 16.7333 80.0263 19.32L79.0263 21.12ZM73.6662 28.52C74.6263 27.4 75.5996 25.9467 76.5863 24.16C76.4796 23.9733 76.3596 23.7467 76.2263 23.48C76.0929 23.2133 75.9329 22.8933 75.7463 22.52L75.3063 22.56C75.0396 23.2267 74.7729 24.0533 74.5063 25.04C74.2396 26.0267 73.9596 27.1867 73.6662 28.52ZM93.6269 29.16C92.9069 29.16 92.3469 28.7867 91.9469 28.04C91.6269 27.4267 91.4669 26.72 91.4669 25.92C91.4669 25.52 91.4935 25.08 91.5469 24.6C91.6269 24.0933 91.7335 23.5467 91.8669 22.96C90.1869 26.6933 88.4535 28.56 86.6669 28.56C85.5735 28.56 85.0269 27.8533 85.0269 26.44C85.0269 24.1733 86.1202 21.8267 88.3069 19.4C90.5202 16.92 92.7202 15.68 94.9069 15.68C95.9469 15.68 96.4669 16.1333 96.4669 17.04C96.4669 18.16 95.7202 19.28 94.2269 20.4C93.4535 22.32 93.0669 24.2933 93.0669 26.32C93.0669 27.84 93.4002 28.6 94.0669 28.6C95.0002 28.6 96.6002 26.92 98.8669 23.56C99.0269 23.3467 99.1469 23.24 99.2269 23.24C99.3069 23.24 99.3469 23.2933 99.3469 23.4C99.3469 23.5333 99.2935 23.6667 99.1869 23.8C96.7869 27.3733 94.9335 29.16 93.6269 29.16ZM86.8269 27.32C88.5069 27.32 90.1335 25.4533 91.7069 21.72C91.4935 21.7733 91.2935 21.8267 91.1069 21.88C90.9469 21.9067 90.8002 21.92 90.6669 21.92C90.5602 21.92 90.5069 21.88 90.5069 21.8C90.5069 21.6667 90.6935 21.5333 91.0669 21.4L92.3069 20.68C92.3602 20.2267 92.6402 19.64 93.1469 18.92C93.6535 18.1733 94.1335 17.8 94.5869 17.8C94.7469 17.8 94.8269 17.92 94.8269 18.16C94.8269 18.3467 94.7602 18.64 94.6269 19.04C95.0535 18.4533 95.2669 17.88 95.2669 17.32C95.2669 16.7067 94.9869 16.4 94.4269 16.4C93.0935 16.4 91.3469 17.72 89.1869 20.36C87.0269 22.9467 85.9469 24.96 85.9469 26.4C85.9469 27.0133 86.2402 27.32 86.8269 27.32ZM102.508 29.56C101.175 29.56 100.508 28.7467 100.508 27.12C100.508 25.9467 100.802 24.4933 101.388 22.76C101.282 22.4133 101.095 22.1067 100.828 21.84C100.588 21.5467 100.242 21.3067 99.7884 21.12L97.6284 20.24C97.2818 20.08 97.1084 19.8 97.1084 19.4C97.1084 18.9733 97.2951 18.72 97.6684 18.64H98.7484C100.162 18.64 101.642 18.48 103.188 18.16L103.228 18.08L105.868 12.24L107.028 9.56C107.242 9.08 107.762 8.84 108.588 8.84C109.148 8.84 109.428 8.97333 109.428 9.24C109.428 9.34667 108.935 10.48 107.948 12.64C106.962 14.8267 106.402 15.9867 106.268 16.12L105.588 16.76L105.108 17.72C105.508 17.5867 106.188 17.36 107.148 17.04C108.135 16.6933 109.402 16.2533 110.948 15.72C111.055 15.6933 111.148 15.68 111.228 15.68C111.308 15.6533 111.362 15.64 111.388 15.64C111.495 15.64 111.548 15.6667 111.548 15.72C111.548 16.1733 109.295 17.04 104.788 18.32C104.255 19.36 103.802 20.2533 103.428 21C103.055 21.72 102.775 22.3067 102.588 22.76C101.895 24.52 101.548 26.1067 101.548 27.52C101.548 28.4 101.842 28.84 102.428 28.84C103.148 28.84 104.095 28.3333 105.268 27.32L107.068 25.76C107.148 25.76 107.188 25.8 107.188 25.88C107.188 25.96 107.148 26.08 107.068 26.24C106.642 26.88 105.962 27.56 105.028 28.28C103.935 29.1333 103.095 29.56 102.508 29.56ZM101.548 22.2C101.735 21.6667 101.935 21.12 102.148 20.56C102.388 20 102.642 19.4267 102.908 18.84C102.242 19 101.562 19.1467 100.868 19.28C100.202 19.4133 99.5351 19.5333 98.8684 19.64C100.255 20.36 101.148 21.2133 101.548 22.2ZM117.031 33.2C116.764 33.2 116.631 33.0933 116.631 32.88C116.631 32.7467 116.737 32.6533 116.951 32.6C117.191 32.5733 117.551 32.52 118.031 32.44C119.417 31.9867 120.897 30.92 122.471 29.24C119.351 28.44 117.791 26.2533 117.791 22.68C117.791 21.5333 117.951 20.4 118.271 19.28C117.711 18.2667 117.431 17.2 117.431 16.08C117.431 14.1067 118.244 12.2933 119.871 10.64C122.777 7.57333 126.657 6.04 131.511 6.04C132.097 6.04 132.644 6.08 133.151 6.16C133.231 5.70667 133.311 5.16 133.391 4.52C133.471 3.88 133.511 3.01333 133.511 1.92C133.511 1.70666 133.591 1.6 133.751 1.6C133.831 1.6 133.871 1.66666 133.871 1.8C133.951 2.38667 133.991 3.08 133.991 3.88C133.991 4.22667 133.951 4.61333 133.871 5.04C133.817 5.46667 133.751 5.86667 133.671 6.24C135.697 6.64 137.377 7.58667 138.711 9.08C140.017 10.5467 140.671 12.3067 140.671 14.36C140.671 18.3067 138.991 21.84 135.631 24.96C132.324 27.9733 128.684 29.48 124.711 29.48C124.124 29.48 123.564 29.44 123.031 29.36C120.764 31.92 118.764 33.2 117.031 33.2ZM123.471 28.08C124.564 26.7467 125.604 25.2533 126.591 23.6C127.577 21.9467 128.511 20.1333 129.391 18.16C128.804 17.3867 128.511 16.5333 128.511 15.6C128.511 14.5867 128.777 14.08 129.311 14.08C129.764 14.08 130.124 14.5333 130.391 15.44L130.591 15.24C131.151 13.7733 131.631 12.3333 132.031 10.92C132.431 9.50667 132.764 8.10667 133.031 6.72C132.524 6.64 132.017 6.6 131.511 6.6C128.897 6.6 126.577 7.17333 124.551 8.32C122.391 9.49333 120.737 11.2 119.591 13.44C118.951 14.72 118.631 16.0667 118.631 17.48C118.631 17.5867 118.631 17.6933 118.631 17.8C118.631 17.9067 118.644 18.0133 118.671 18.12C119.604 15.72 121.204 13.5867 123.471 11.72C125.897 9.69333 128.311 8.68 130.711 8.68C131.057 8.68 131.231 8.77333 131.231 8.96C131.231 9.14667 131.044 9.24 130.671 9.24C128.697 9.24 126.431 10.52 123.871 13.08C121.631 15.2933 120.044 17.48 119.111 19.64C119.351 20.0933 119.764 20.4533 120.351 20.72C120.857 20.96 121.111 21.12 121.111 21.2C121.111 21.3867 120.991 21.48 120.751 21.48C120.137 21.48 119.511 21.0667 118.871 20.24C118.524 21.12 118.351 21.9333 118.351 22.68C118.351 26.12 120.057 27.92 123.471 28.08ZM124.031 28.12C127.657 28.0933 131.071 26.6133 134.271 23.68C137.551 20.6667 139.191 17.3733 139.191 13.8C139.191 12.04 138.684 10.5333 137.671 9.28C136.657 8.02667 135.284 7.21333 133.551 6.84C133.071 9.32 132.311 11.9733 131.271 14.8C131.564 14.64 131.791 14.56 131.951 14.56C132.217 14.56 132.351 14.7067 132.351 15C132.351 15.56 132.057 16.1867 131.471 16.88C131.177 17.2267 130.884 17.5333 130.591 17.8C130.324 18.04 130.057 18.2267 129.791 18.36C128.084 22.1733 126.164 25.4267 124.031 28.12ZM151.383 30.52C150.13 30.52 148.676 29.8 147.023 28.36C145.77 27.2667 144.65 26.0133 143.663 24.6L142.143 27.08C141.503 28.0933 140.89 28.84 140.303 29.32C140.09 29.9333 139.676 30.24 139.063 30.24C138.77 30.24 138.623 30.1333 138.623 29.92C138.623 29.1733 139.396 26.8133 140.943 22.84L140.183 22.92C140.023 22.92 139.943 22.8933 139.943 22.84C139.943 22.4667 140.343 22.2667 141.143 22.24C141.57 21.2267 142.023 20.1333 142.503 18.96C142.983 17.76 143.503 16.5067 144.063 15.2C142.836 15.8667 141.956 16.2 141.423 16.2C141.316 16.2 141.263 16.16 141.263 16.08C141.263 15.8133 141.45 15.6 141.823 15.44L142.503 15.12C143.276 14.7467 143.97 14.3333 144.583 13.88C144.93 13.1067 145.356 12.1333 145.863 10.96C146.396 9.76 147.036 8.36 147.783 6.76C147.916 6.41333 148.09 6 148.303 5.52C148.543 5.04 148.81 4.46667 149.103 3.8C149.396 3.18666 150.023 2.88 150.983 2.88C151.49 2.88 151.743 3.02666 151.743 3.32C151.743 3.42667 151.623 3.78667 151.383 4.4C151.01 5.41333 150.503 6.53333 149.863 7.76C149.25 8.98667 148.503 10.3067 147.623 11.72C147.49 11.9067 147.316 12.1467 147.103 12.44C146.916 12.7333 146.69 13.08 146.423 13.48L145.143 15.96C144.476 17.2667 143.516 19.3067 142.263 22.08C142.796 21.5733 143.143 21.32 143.303 21.32C143.516 21.32 143.703 21.4667 143.863 21.76C143.916 21.7333 144.036 21.6933 144.223 21.64C144.436 21.56 144.703 21.4533 145.023 21.32C145.13 21.1067 145.263 20.8533 145.423 20.56C145.61 20.24 145.823 19.8667 146.063 19.44C146.383 18.88 146.73 18.3333 147.103 17.8C147.503 17.2667 147.93 16.7467 148.383 16.24C149.636 14.8267 150.663 14.12 151.463 14.12C152.316 14.12 152.743 15.0133 152.743 16.8C152.743 19.0133 150.316 20.68 145.463 21.8C145.303 22.12 145.023 22.56 144.623 23.12C145.45 24.5867 146.45 25.9333 147.623 27.16C149.17 28.7867 150.556 29.6 151.783 29.6C152.316 29.6 152.77 29.4133 153.143 29.04C153.57 28.6667 153.796 28.48 153.823 28.48C153.93 28.48 153.983 28.5333 153.983 28.64C153.983 28.6933 153.956 28.8 153.903 28.96C153.263 30 152.423 30.52 151.383 30.52ZM145.823 21.12C149.13 19.92 150.783 18.4 150.783 16.56C150.783 15.8133 150.61 15.44 150.263 15.44C149.676 15.44 148.53 16.7333 146.823 19.32L145.823 21.12ZM140.463 28.52C141.423 27.4 142.396 25.9467 143.383 24.16C143.276 23.9733 143.156 23.7467 143.023 23.48C142.89 23.2133 142.73 22.8933 142.543 22.52L142.103 22.56C141.836 23.2267 141.57 24.0533 141.303 25.04C141.036 26.0267 140.756 27.1867 140.463 28.52ZM157.584 15.12C157.05 15.12 156.784 14.84 156.784 14.28C156.784 14.0133 156.944 13.6933 157.264 13.32C157.61 12.92 157.917 12.6533 158.184 12.52C159.144 12.0667 159.717 11.84 159.904 11.84C159.984 11.84 160.024 11.8667 160.024 11.92C160.024 12 159.717 12.3867 159.104 13.08C159.05 13.1333 158.85 13.5467 158.504 14.32C158.21 14.8533 157.904 15.12 157.584 15.12ZM155.184 27.96C153.824 27.96 153.144 27.28 153.144 25.92C153.144 24.9067 153.41 23.6267 153.944 22.08L153.224 23.2C152.877 23.7867 152.637 24.08 152.504 24.08C152.45 24.08 152.424 24.04 152.424 23.96C152.424 23.7467 152.504 23.5467 152.664 23.36C153.304 22.48 154.01 21.2133 154.784 19.56C154.864 19.3467 154.97 19.08 155.104 18.76C155.264 18.44 155.45 18.08 155.664 17.68C155.797 17.44 156.13 17.32 156.664 17.32C157.117 17.32 157.344 17.4533 157.344 17.72C157.344 18.0133 157.21 18.4133 156.944 18.92C156.704 19.4533 156.477 19.76 156.264 19.84C154.877 22.6133 154.184 24.6533 154.184 25.96C154.184 26.84 154.477 27.28 155.064 27.28C156.024 27.28 157.077 26.5867 158.224 25.2C159.424 23.8133 160.01 23.12 159.984 23.12C160.037 23.12 160.064 23.16 160.064 23.24C160.064 23.2667 160.037 23.36 159.984 23.52C159.744 23.9467 159.437 24.3867 159.064 24.84C158.717 25.2667 158.317 25.72 157.864 26.2C156.69 27.3733 155.797 27.96 155.184 27.96ZM169.977 30.52C168.724 30.52 167.27 29.8 165.617 28.36C164.364 27.2667 163.244 26.0133 162.257 24.6L160.737 27.08C160.097 28.0933 159.484 28.84 158.897 29.32C158.684 29.9333 158.27 30.24 157.657 30.24C157.364 30.24 157.217 30.1333 157.217 29.92C157.217 29.1733 157.99 26.8133 159.537 22.84L158.777 22.92C158.617 22.92 158.537 22.8933 158.537 22.84C158.537 22.4667 158.937 22.2667 159.737 22.24C160.164 21.2267 160.617 20.1333 161.097 18.96C161.577 17.76 162.097 16.5067 162.657 15.2C161.43 15.8667 160.55 16.2 160.017 16.2C159.91 16.2 159.857 16.16 159.857 16.08C159.857 15.8133 160.044 15.6 160.417 15.44L161.097 15.12C161.87 14.7467 162.564 14.3333 163.177 13.88C163.524 13.1067 163.95 12.1333 164.457 10.96C164.99 9.76 165.63 8.36 166.377 6.76C166.51 6.41333 166.684 6 166.897 5.52C167.137 5.04 167.404 4.46667 167.697 3.8C167.99 3.18666 168.617 2.88 169.577 2.88C170.084 2.88 170.337 3.02666 170.337 3.32C170.337 3.42667 170.217 3.78667 169.977 4.4C169.604 5.41333 169.097 6.53333 168.457 7.76C167.844 8.98667 167.097 10.3067 166.217 11.72C166.084 11.9067 165.91 12.1467 165.697 12.44C165.51 12.7333 165.284 13.08 165.017 13.48L163.737 15.96C163.07 17.2667 162.11 19.3067 160.857 22.08C161.39 21.5733 161.737 21.32 161.897 21.32C162.11 21.32 162.297 21.4667 162.457 21.76C162.51 21.7333 162.63 21.6933 162.817 21.64C163.03 21.56 163.297 21.4533 163.617 21.32C163.724 21.1067 163.857 20.8533 164.017 20.56C164.204 20.24 164.417 19.8667 164.657 19.44C164.977 18.88 165.324 18.3333 165.697 17.8C166.097 17.2667 166.524 16.7467 166.977 16.24C168.23 14.8267 169.257 14.12 170.057 14.12C170.91 14.12 171.337 15.0133 171.337 16.8C171.337 19.0133 168.91 20.68 164.057 21.8C163.897 22.12 163.617 22.56 163.217 23.12C164.044 24.5867 165.044 25.9333 166.217 27.16C167.764 28.7867 169.15 29.6 170.377 29.6C170.91 29.6 171.364 29.4133 171.737 29.04C172.164 28.6667 172.39 28.48 172.417 28.48C172.524 28.48 172.577 28.5333 172.577 28.64C172.577 28.6933 172.55 28.8 172.497 28.96C171.857 30 171.017 30.52 169.977 30.52ZM164.417 21.12C167.724 19.92 169.377 18.4 169.377 16.56C169.377 15.8133 169.204 15.44 168.857 15.44C168.27 15.44 167.124 16.7333 165.417 19.32L164.417 21.12ZM159.057 28.52C160.017 27.4 160.99 25.9467 161.977 24.16C161.87 23.9733 161.75 23.7467 161.617 23.48C161.484 23.2133 161.324 22.8933 161.137 22.52L160.697 22.56C160.43 23.2267 160.164 24.0533 159.897 25.04C159.63 26.0267 159.35 27.1867 159.057 28.52ZM176.178 15.12C175.644 15.12 175.378 14.84 175.378 14.28C175.378 14.0133 175.538 13.6933 175.858 13.32C176.204 12.92 176.511 12.6533 176.778 12.52C177.738 12.0667 178.311 11.84 178.498 11.84C178.578 11.84 178.618 11.8667 178.618 11.92C178.618 12 178.311 12.3867 177.698 13.08C177.644 13.1333 177.444 13.5467 177.098 14.32C176.804 14.8533 176.498 15.12 176.178 15.12ZM173.778 27.96C172.418 27.96 171.738 27.28 171.738 25.92C171.738 24.9067 172.004 23.6267 172.538 22.08L171.818 23.2C171.471 23.7867 171.231 24.08 171.098 24.08C171.044 24.08 171.018 24.04 171.018 23.96C171.018 23.7467 171.098 23.5467 171.258 23.36C171.898 22.48 172.604 21.2133 173.378 19.56C173.458 19.3467 173.564 19.08 173.698 18.76C173.858 18.44 174.044 18.08 174.258 17.68C174.391 17.44 174.724 17.32 175.258 17.32C175.711 17.32 175.938 17.4533 175.938 17.72C175.938 18.0133 175.804 18.4133 175.538 18.92C175.298 19.4533 175.071 19.76 174.858 19.84C173.471 22.6133 172.778 24.6533 172.778 25.96C172.778 26.84 173.071 27.28 173.658 27.28C174.618 27.28 175.671 26.5867 176.817 25.2C178.018 23.8133 178.604 23.12 178.578 23.12C178.631 23.12 178.658 23.16 178.658 23.24C178.658 23.2667 178.631 23.36 178.578 23.52C178.338 23.9467 178.031 24.3867 177.658 24.84C177.311 25.2667 176.911 25.72 176.458 26.2C175.284 27.3733 174.391 27.96 173.778 27.96ZM180.291 28.88C179.251 28.88 178.731 28.2133 178.731 26.88C178.731 25.2533 179.344 23.5867 180.571 21.88C180.144 20.84 179.931 19.7333 179.931 18.56C179.931 17.4133 180.157 16.4133 180.611 15.56C181.464 13.88 182.557 13.04 183.891 13.04C185.544 13.04 186.504 14.4533 186.771 17.28C187.437 17.3067 187.931 17.52 188.251 17.92C188.597 18.2933 188.771 18.8267 188.771 19.52C188.771 20.0533 188.704 20.44 188.571 20.68C188.464 20.8933 188.357 21 188.251 21C188.144 21 188.091 20.9467 188.091 20.84C188.091 20.7067 188.104 20.5467 188.131 20.36C188.184 20.1733 188.211 19.9467 188.211 19.68C188.211 19.3067 188.077 19.0267 187.811 18.84C187.544 18.6267 187.211 18.52 186.811 18.52C186.491 21.7733 185.704 24.2667 184.451 26H185.691C185.344 26.2133 185.037 26.32 184.771 26.32C184.717 26.32 184.637 26.3067 184.531 26.28C184.451 26.2533 184.384 26.24 184.331 26.24C184.384 26.2667 183.917 26.7067 182.931 27.56C181.891 28.44 181.011 28.88 180.291 28.88ZM181.011 21.44C182.637 19.2533 184.344 17.8933 186.131 17.36C185.597 15.0667 184.864 13.92 183.931 13.92C183.077 13.92 182.291 14.76 181.571 16.44C181.117 17.56 180.891 18.7467 180.891 20C180.891 20.5067 180.931 20.9867 181.011 21.44ZM183.171 25.8C183.811 25.2133 184.464 24.0667 185.131 22.36C185.824 20.6 186.171 19.3067 186.171 18.48C185.584 18.56 184.664 19.1067 183.411 20.12C182.184 21.1067 181.424 21.8933 181.131 22.48C181.691 24.5067 182.371 25.6133 183.171 25.8ZM180.411 27.68C181.157 27.68 182.024 27.12 183.011 26C182.131 25.8933 181.411 24.84 180.851 22.84C179.971 24.3067 179.531 25.4533 179.531 26.28C179.531 27.2133 179.824 27.68 180.411 27.68ZM192.463 28.6C191.13 28.6 190.463 27.92 190.463 26.56C190.463 25.0933 191.143 22.52 192.503 18.84C191.837 19.7467 191.37 20.2 191.103 20.2C191.023 20.2 190.983 20.16 190.983 20.08C190.983 20.0533 191.33 19.5867 192.023 18.68C192.37 18.2267 192.637 17.88 192.823 17.64C193.037 17.3733 193.157 17.2 193.183 17.12C193.317 16.7467 193.503 16.2667 193.743 15.68C193.983 15.0933 194.263 14.4267 194.583 13.68C195.17 12.3467 195.77 11.0133 196.383 9.68C196.997 8.32 197.637 6.96 198.303 5.6C198.517 5.14666 198.783 4.6 199.103 3.96C199.45 3.32 199.85 2.58666 200.303 1.76C200.597 1.30667 201.143 1.08 201.943 1.08C202.423 1.08 202.663 1.2 202.663 1.44C202.663 1.52 202.65 1.58667 202.623 1.64L200.463 6.44L199.583 8.36C199.397 8.46667 199.157 8.66667 198.863 8.96C198.863 8.96 198.717 9.24 198.423 9.8C198.157 10.36 197.73 11.1867 197.143 12.28C193.383 19.5867 191.503 24.36 191.503 26.6C191.503 27.48 191.797 27.92 192.383 27.92C193.05 27.92 193.837 27.5467 194.743 26.8C195.677 26.0267 196.117 25.64 196.063 25.64C196.17 25.64 196.223 25.6933 196.223 25.8C196.223 25.9067 196.17 26.0133 196.063 26.12C194.89 27.7733 193.69 28.6 192.463 28.6ZM203.627 29.16C202.907 29.16 202.347 28.7867 201.947 28.04C201.627 27.4267 201.467 26.72 201.467 25.92C201.467 25.52 201.494 25.08 201.547 24.6C201.627 24.0933 201.734 23.5467 201.867 22.96C200.187 26.6933 198.454 28.56 196.667 28.56C195.574 28.56 195.027 27.8533 195.027 26.44C195.027 24.1733 196.12 21.8267 198.307 19.4C200.52 16.92 202.72 15.68 204.907 15.68C205.947 15.68 206.467 16.1333 206.467 17.04C206.467 18.16 205.72 19.28 204.227 20.4C203.454 22.32 203.067 24.2933 203.067 26.32C203.067 27.84 203.4 28.6 204.067 28.6C205 28.6 206.6 26.92 208.867 23.56C209.027 23.3467 209.147 23.24 209.227 23.24C209.307 23.24 209.347 23.2933 209.347 23.4C209.347 23.5333 209.294 23.6667 209.187 23.8C206.787 27.3733 204.934 29.16 203.627 29.16ZM196.827 27.32C198.507 27.32 200.134 25.4533 201.707 21.72C201.494 21.7733 201.294 21.8267 201.107 21.88C200.947 21.9067 200.8 21.92 200.667 21.92C200.56 21.92 200.507 21.88 200.507 21.8C200.507 21.6667 200.694 21.5333 201.067 21.4L202.307 20.68C202.36 20.2267 202.64 19.64 203.147 18.92C203.654 18.1733 204.134 17.8 204.587 17.8C204.747 17.8 204.827 17.92 204.827 18.16C204.827 18.3467 204.76 18.64 204.627 19.04C205.054 18.4533 205.267 17.88 205.267 17.32C205.267 16.7067 204.987 16.4 204.427 16.4C203.094 16.4 201.347 17.72 199.187 20.36C197.027 22.9467 195.947 24.96 195.947 26.4C195.947 27.0133 196.24 27.32 196.827 27.32Z" fill="#A6095E" fill-opacity="0.76"/>
</g>
<defs>
<filter id="filter0_i_1_2" x="0.0400085" y="0.919998" width="209.307" height="36.36" filterUnits="userSpaceOnUse" color-interpolation-filters="sRGB">
<feFlood flood-opacity="0" result="BackgroundImageFix"/>
<feBlend mode="normal" in="SourceGraphic" in2="BackgroundImageFix" result="shape"/>
<feColorMatrix in="SourceAlpha" type="matrix" values="0 0 0 0 0 0 0 0 0 0 0 0 0 0 0 0 0 0 127 0" result="hardAlpha"/>
<feOffset dy="4"/>
<feGaussianBlur stdDeviation="2"/>
<feComposite in2="hardAlpha" operator="arithmetic" k2="-1" k3="1"/>
<feColorMatrix type="matrix" values="0 0 0 0 0 0 0 0 0 0 0 0 0 0 0 0 0 0 0.25 0"/>
<feBlend mode="normal" in2="shape" result="effect1_innerShadow_1_2"/>
</filter>
</defs>
</svg>
