<svg width="221" height="44" viewBox="0 0 221 44" fill="none" xmlns="http://www.w3.org/2000/svg">
<g filter="url(#filter0_i_1_2)">
<path d="M4.64 33.28C3.62667 33.28 2.62667 32.9333 1.64 32.24C0.573333 31.4933 0.04 30.6133 0.04 29.6C0.04 28.3467 0.693333 27.4 2 26.76C2.98667 26.2533 4.18667 26 5.6 26C6.34667 26 7.13333 26.0667 7.96 26.2C8.78667 26.3333 9.66667 26.5333 10.6 26.8C12.5467 24.4533 14.2533 21.4933 15.72 17.92C15.5333 17.3067 15.3867 16.7733 15.28 16.32C15.2 15.84 15.16 15.4267 15.16 15.08C15.16 14.12 15.3467 13.64 15.72 13.64C16.1467 13.64 16.52 14.0667 16.84 14.92C17.8 13.0267 18.76 9.76 19.72 5.12C14.1733 5.30667 9.92 6.92 6.96 9.96C5.89333 11.0267 5.36 12.24 5.36 13.6C5.36 14.6667 5.72 15.64 6.44 16.52C7.08 17.32 7.93333 17.9333 9 18.36C9.16 18.4133 9.37333 18.48 9.64 18.56C9.90667 18.64 10.2133 18.72 10.56 18.8C10.72 18.8267 10.8 18.88 10.8 18.96C10.8 19.0933 10.7067 19.16 10.52 19.16L10.4 19.12C8.74667 18.9867 7.2 18.3067 5.76 17.08C4.18667 15.7467 3.4 14.28 3.4 12.68C3.4 11.48 3.89333 10.3867 4.88 9.4C6.56 7.66667 8.89333 6.38667 11.88 5.56C14.36 4.84 17.0267 4.48 19.88 4.48C19.9333 3.92 20.0133 3.34667 20.12 2.76C20.2533 2.14667 20.4 1.53333 20.56 0.919999C20.6667 0.946665 20.72 1.25333 20.72 1.84C20.72 2.18667 20.6933 2.58667 20.64 3.04C20.5867 3.46667 20.5067 3.94667 20.4 4.48C21.4133 4.50666 22.4 4.57333 23.36 4.68C24.3467 4.76 25.2933 4.90667 26.2 5.12C27.8267 3.62667 29.48 2.88 31.16 2.88C32.1467 2.88 32.9733 3.22666 33.64 3.92C34.3067 4.61333 34.64 5.45333 34.64 6.44C34.64 6.81333 34.5733 7 34.44 7C34.3333 7 34.24 6.62667 34.16 5.88C34 4.68 33.1333 4.08 31.56 4.08C30.4933 4.08 29.3333 4.58667 28.08 5.6C29.7333 6.10666 31.1467 6.82667 32.32 7.76C33.7867 8.90667 34.52 10.2267 34.52 11.72C34.52 13.5333 33.48 14.96 31.4 16C29.8 16.8267 27.9867 17.2933 25.96 17.4C31.48 19.96 34.24 22.9867 34.24 26.48C34.24 28.1333 33.5467 29.52 32.16 30.64C30.8 31.76 29.2667 32.32 27.56 32.32C25 32.32 22.7333 32 20.76 31.36L14.44 28.76C13.6933 29.64 12.96 30.3733 12.24 30.96C11.5467 31.5733 10.8533 32.0267 10.16 32.32C8.8 32.96 6.96 33.28 4.64 33.28ZM13.24 27.68C14.3333 26.48 15.5733 24.4 16.96 21.44C17.6 20.0533 18.24 18.68 18.88 17.32C19.52 15.9333 20.1733 14.5467 20.84 13.16C21.6933 11.4533 22.52 9.97333 23.32 8.72C24.1467 7.46667 24.9467 6.42667 25.72 5.6C24.0133 5.28 22.3067 5.12 20.6 5.12H20.28C19.72 7.70667 18.8 10.8667 17.52 14.6C17.8933 14.3867 18.1733 14.28 18.36 14.28C18.5733 14.28 18.68 14.4133 18.68 14.68C18.68 15.4267 17.8133 16.6 16.08 18.2C15.3333 19.9067 14.5333 21.4933 13.68 22.96C12.8533 24.4 11.9467 25.72 10.96 26.92C11.3333 27.0267 11.7067 27.1467 12.08 27.28C12.48 27.4133 12.8667 27.5467 13.24 27.68ZM27.28 31.48C30.88 31.48 32.68 30.2533 32.68 27.8C32.68 24.52 30.4533 21.8 26 19.64C25.7333 19.5333 25.4 19.4 25 19.24C24.6 19.0533 24.1333 18.84 23.6 18.6C23.52 18.5467 23.48 18.4133 23.48 18.2C23.48 17.4533 23.8667 17 24.64 16.84H25.44C25.68 16.8133 25.92 16.7867 26.16 16.76C26.4 16.7333 26.6267 16.7067 26.84 16.68C28.4133 16.3867 29.6933 15.8533 30.68 15.08C31.9067 14.1733 32.52 13 32.52 11.56C32.52 10.2533 32 9.08 30.96 8.04C30.0533 7.18666 28.92 6.53333 27.56 6.08C25.96 7.54667 24.4267 9.77333 22.96 12.76L19.24 20.92C17.7733 24.0933 16.3333 26.52 14.92 28.2L20.96 30.36C23.2267 31.1067 25.3333 31.48 27.28 31.48ZM4.92 32.36C6.30667 32.36 7.78667 31.9467 9.36 31.12C10.9867 30.2933 12.16 29.3333 12.88 28.24C12.5333 28.0533 12.1733 27.88 11.8 27.72C11.4533 27.56 11.0667 27.4133 10.64 27.28C9.06667 29.1733 7.70667 30.12 6.56 30.12C6 30.12 5.72 29.96 5.72 29.64C5.72 29.5067 5.8 29.44 5.96 29.44C6.01333 29.44 6.12 29.4533 6.28 29.48C6.44 29.5333 6.56 29.56 6.64 29.56C7.65333 29.56 8.86667 28.7733 10.28 27.2C8.57333 26.64 6.94667 26.36 5.4 26.36C4.30667 26.36 3.32 26.5467 2.44 26.92C1.32 27.4 0.76 28.1467 0.76 29.16C0.76 30.12 1.22667 30.9067 2.16 31.52C3.01333 32.08 3.93333 32.36 4.92 32.36ZM44.4863 29.16C43.7663 29.16 43.2063 28.7867 42.8063 28.04C42.4863 27.4267 42.3263 26.72 42.3263 25.92C42.3263 25.52 42.3529 25.08 42.4063 24.6C42.4863 24.0933 42.5929 23.5467 42.7263 22.96C41.0463 26.6933 39.3129 28.56 37.5263 28.56C36.4329 28.56 35.8862 27.8533 35.8862 26.44C35.8862 24.1733 36.9796 21.8267 39.1663 19.4C41.3796 16.92 43.5796 15.68 45.7663 15.68C46.8063 15.68 47.3263 16.1333 47.3263 17.04C47.3263 18.16 46.5796 19.28 45.0863 20.4C44.3129 22.32 43.9263 24.2933 43.9263 26.32C43.9263 27.84 44.2596 28.6 44.9263 28.6C45.8596 28.6 47.4596 26.92 49.7263 23.56C49.8863 23.3467 50.0063 23.24 50.0863 23.24C50.1663 23.24 50.2063 23.2933 50.2063 23.4C50.2063 23.5333 50.1529 23.6667 50.0463 23.8C47.6463 27.3733 45.7929 29.16 44.4863 29.16ZM37.6863 27.32C39.3663 27.32 40.9929 25.4533 42.5663 21.72C42.3529 21.7733 42.1529 21.8267 41.9663 21.88C41.8063 21.9067 41.6596 21.92 41.5263 21.92C41.4196 21.92 41.3663 21.88 41.3663 21.8C41.3663 21.6667 41.5529 21.5333 41.9263 21.4L43.1663 20.68C43.2196 20.2267 43.4996 19.64 44.0063 18.92C44.5129 18.1733 44.9929 17.8 45.4463 17.8C45.6063 17.8 45.6863 17.92 45.6863 18.16C45.6863 18.3467 45.6196 18.64 45.4863 19.04C45.9129 18.4533 46.1263 17.88 46.1263 17.32C46.1263 16.7067 45.8463 16.4 45.2863 16.4C43.9529 16.4 42.2063 17.72 40.0463 20.36C37.8863 22.9467 36.8063 24.96 36.8063 26.4C36.8063 27.0133 37.0996 27.32 37.6863 27.32ZM51.4103 29.12C51.2236 29.12 50.9836 29.04 50.6903 28.88C50.397 28.6933 50.2503 28.52 50.2503 28.36L50.7303 27.28C51.1836 26.24 51.6103 25.2267 52.0103 24.24C52.437 23.2267 52.7836 22.2133 53.0503 21.2C53.317 20.2933 53.4503 19.1733 53.4503 17.84C53.3703 18.1067 53.197 18.4933 52.9303 19C52.6636 19.5067 52.3036 20.1467 51.8503 20.92C51.4236 21.6667 51.037 22.2933 50.6903 22.8C50.3703 23.28 50.1036 23.6667 49.8903 23.96C49.8903 23.9867 49.8636 24 49.8103 24C49.677 24 49.6103 23.9467 49.6103 23.84C49.6103 23.7867 49.6236 23.7467 49.6503 23.72L50.8903 21.76C51.6103 20.6133 52.1836 19.5733 52.6103 18.64C53.037 17.68 53.3436 16.84 53.5303 16.12C53.6903 15.4267 53.957 15.08 54.3303 15.08C54.757 15.08 54.9703 15.6133 54.9703 16.68C54.9703 18.6 54.357 20.96 53.1303 23.76C54.5703 21.9467 55.5703 20.7467 56.1303 20.16C57.6503 18.5333 58.837 17.72 59.6903 17.72C60.5436 17.72 60.9703 18.28 60.9703 19.4C60.9703 20.1733 60.757 20.8533 60.3303 21.44C59.8236 22.1867 59.357 22.56 58.9303 22.56C58.8503 22.56 58.8103 22.5067 58.8103 22.4C58.8103 22.4 58.957 22.0667 59.2503 21.4C59.5436 20.7333 59.6903 20.16 59.6903 19.68C59.6903 18.96 59.4636 18.6 59.0103 18.6C58.317 18.6 57.277 19.4133 55.8903 21.04C55.3036 21.7067 54.797 22.3333 54.3703 22.92C53.9436 23.48 53.597 23.9867 53.3303 24.44C53.3036 24.52 53.1703 24.84 52.9303 25.4C52.6903 25.96 52.3836 26.7867 52.0103 27.88L51.6103 29.04C51.557 29.0933 51.4903 29.12 51.4103 29.12ZM68.8222 29.16C68.1022 29.16 67.5422 28.7867 67.1422 28.04C66.8222 27.4267 66.6622 26.72 66.6622 25.92C66.6622 25.52 66.6889 25.08 66.7422 24.6C66.8222 24.0933 66.9289 23.5467 67.0622 22.96C65.3822 26.6933 63.6489 28.56 61.8622 28.56C60.7689 28.56 60.2222 27.8533 60.2222 26.44C60.2222 24.1733 61.3155 21.8267 63.5022 19.4C65.7155 16.92 67.9155 15.68 70.1022 15.68C71.1422 15.68 71.6622 16.1333 71.6622 17.04C71.6622 18.16 70.9155 19.28 69.4222 20.4C68.6489 22.32 68.2622 24.2933 68.2622 26.32C68.2622 27.84 68.5955 28.6 69.2622 28.6C70.1955 28.6 71.7955 26.92 74.0622 23.56C74.2222 23.3467 74.3422 23.24 74.4222 23.24C74.5022 23.24 74.5422 23.2933 74.5422 23.4C74.5422 23.5333 74.4889 23.6667 74.3822 23.8C71.9822 27.3733 70.1289 29.16 68.8222 29.16ZM62.0222 27.32C63.7022 27.32 65.3289 25.4533 66.9022 21.72C66.6889 21.7733 66.4889 21.8267 66.3022 21.88C66.1422 21.9067 65.9955 21.92 65.8622 21.92C65.7555 21.92 65.7022 21.88 65.7022 21.8C65.7022 21.6667 65.8889 21.5333 66.2622 21.4L67.5022 20.68C67.5555 20.2267 67.8355 19.64 68.3422 18.92C68.8489 18.1733 69.3289 17.8 69.7822 17.8C69.9422 17.8 70.0222 17.92 70.0222 18.16C70.0222 18.3467 69.9555 18.64 69.8222 19.04C70.2489 18.4533 70.4622 17.88 70.4622 17.32C70.4622 16.7067 70.1822 16.4 69.6222 16.4C68.2889 16.4 66.5422 17.72 64.3822 20.36C62.2222 22.9467 61.1422 24.96 61.1422 26.4C61.1422 27.0133 61.4355 27.32 62.0222 27.32ZM84.5863 30.52C83.3329 30.52 81.8796 29.8 80.2263 28.36C78.9729 27.2667 77.8529 26.0133 76.8663 24.6L75.3463 27.08C74.7063 28.0933 74.0929 28.84 73.5062 29.32C73.2929 29.9333 72.8796 30.24 72.2662 30.24C71.9729 30.24 71.8262 30.1333 71.8262 29.92C71.8262 29.1733 72.5996 26.8133 74.1463 22.84L73.3862 22.92C73.2262 22.92 73.1462 22.8933 73.1462 22.84C73.1462 22.4667 73.5462 22.2667 74.3463 22.24C74.7729 21.2267 75.2263 20.1333 75.7063 18.96C76.1863 17.76 76.7063 16.5067 77.2663 15.2C76.0396 15.8667 75.1596 16.2 74.6263 16.2C74.5196 16.2 74.4663 16.16 74.4663 16.08C74.4663 15.8133 74.6529 15.6 75.0263 15.44L75.7063 15.12C76.4796 14.7467 77.1729 14.3333 77.7863 13.88C78.1329 13.1067 78.5596 12.1333 79.0663 10.96C79.5996 9.76 80.2396 8.36 80.9863 6.76C81.1196 6.41333 81.2929 6 81.5063 5.52C81.7463 5.04 82.0129 4.46667 82.3063 3.8C82.5996 3.18666 83.2263 2.88 84.1862 2.88C84.6929 2.88 84.9463 3.02666 84.9463 3.32C84.9463 3.42667 84.8263 3.78667 84.5863 4.4C84.2129 5.41333 83.7063 6.53333 83.0663 7.76C82.4529 8.98667 81.7063 10.3067 80.8263 11.72C80.6929 11.9067 80.5196 12.1467 80.3063 12.44C80.1196 12.7333 79.8929 13.08 79.6263 13.48L78.3463 15.96C77.6796 17.2667 76.7196 19.3067 75.4663 22.08C75.9996 21.5733 76.3463 21.32 76.5063 21.32C76.7196 21.32 76.9063 21.4667 77.0663 21.76C77.1196 21.7333 77.2396 21.6933 77.4263 21.64C77.6396 21.56 77.9063 21.4533 78.2263 21.32C78.3329 21.1067 78.4663 20.8533 78.6263 20.56C78.8129 20.24 79.0263 19.8667 79.2663 19.44C79.5863 18.88 79.9329 18.3333 80.3063 17.8C80.7063 17.2667 81.1329 16.7467 81.5863 16.24C82.8396 14.8267 83.8663 14.12 84.6663 14.12C85.5196 14.12 85.9463 15.0133 85.9463 16.8C85.9463 19.0133 83.5196 20.68 78.6663 21.8C78.5063 22.12 78.2263 22.56 77.8263 23.12C78.6529 24.5867 79.6529 25.9333 80.8263 27.16C82.3729 28.7867 83.7596 29.6 84.9863 29.6C85.5196 29.6 85.9729 29.4133 86.3463 29.04C86.7729 28.6667 86.9996 28.48 87.0263 28.48C87.1329 28.48 87.1863 28.5333 87.1863 28.64C87.1863 28.6933 87.1596 28.8 87.1063 28.96C86.4663 30 85.6263 30.52 84.5863 30.52ZM79.0263 21.12C82.3329 19.92 83.9863 18.4 83.9863 16.56C83.9863 15.8133 83.8129 15.44 83.4663 15.44C82.8796 15.44 81.7329 16.7333 80.0263 19.32L79.0263 21.12ZM73.6662 28.52C74.6263 27.4 75.5996 25.9467 76.5863 24.16C76.4796 23.9733 76.3596 23.7467 76.2263 23.48C76.0929 23.2133 75.9329 22.8933 75.7463 22.52L75.3063 22.56C75.0396 23.2267 74.7729 24.0533 74.5063 25.04C74.2396 26.0267 73.9596 27.1867 73.6662 28.52ZM93.6269 29.16C92.9069 29.16 92.3469 28.7867 91.9469 28.04C91.6269 27.4267 91.4669 26.72 91.4669 25.92C91.4669 25.52 91.4935 25.08 91.5469 24.6C91.6269 24.0933 91.7335 23.5467 91.8669 22.96C90.1869 26.6933 88.4535 28.56 86.6669 28.56C85.5735 28.56 85.0269 27.8533 85.0269 26.44C85.0269 24.1733 86.1202 21.8267 88.3069 19.4C90.5202 16.92 92.7202 15.68 94.9069 15.68C95.9469 15.68 96.4669 16.1333 96.4669 17.04C96.4669 18.16 95.7202 19.28 94.2269 20.4C93.4535 22.32 93.0669 24.2933 93.0669 26.32C93.0669 27.84 93.4002 28.6 94.0669 28.6C95.0002 28.6 96.6002 26.92 98.8669 23.56C99.0269 23.3467 99.1469 23.24 99.2269 23.24C99.3069 23.24 99.3469 23.2933 99.3469 23.4C99.3469 23.5333 99.2935 23.6667 99.1869 23.8C96.7869 27.3733 94.9335 29.16 93.6269 29.16ZM86.8269 27.32C88.5069 27.32 90.1335 25.4533 91.7069 21.72C91.4935 21.7733 91.2935 21.8267 91.1069 21.88C90.9469 21.9067 90.8002 21.92 90.6669 21.92C90.5602 21.92 90.5069 21.88 90.5069 21.8C90.5069 21.6667 90.6935 21.5333 91.0669 21.4L92.3069 20.68C92.3602 20.2267 92.6402 19.64 93.1469 18.92C93.6535 18.1733 94.1335 17.8 94.5869 17.8C94.7469 17.8 94.8269 17.92 94.8269 18.16C94.8269 18.3467 94.7602 18.64 94.6269 19.04C95.0535 18.4533 95.2669 17.88 95.2669 17.32C95.2669 16.7067 94.9869 16.4 94.4269 16.4C93.0935 16.4 91.3469 17.72 89.1869 20.36C87.0269 22.9467 85.9469 24.96 85.9469 26.4C85.9469 27.0133 86.2402 27.32 86.8269 27.32ZM102.508 29.56C101.175 29.56 100.508 28.7467 100.508 27.12C100.508 25.9467 100.802 24.4933 101.388 22.76C101.282 22.4133 101.095 22.1067 100.828 21.84C100.588 21.5467 100.242 21.3067 99.7884 21.12L97.6284 20.24C97.2818 20.08 97.1084 19.8 97.1084 19.4C97.1084 18.9733 97.2951 18.72 97.6684 18.64H98.7484C100.162 18.64 101.642 18.48 103.188 18.16L103.228 18.08L105.868 12.24L107.028 9.56C107.242 9.08 107.762 8.84 108.588 8.84C109.148 8.84 109.428 8.97333 109.428 9.24C109.428 9.34667 108.935 10.48 107.948 12.64C106.962 14.8267 106.402 15.9867 106.268 16.12L105.588 16.76L105.108 17.72C105.508 17.5867 106.188 17.36 107.148 17.04C108.135 16.6933 109.402 16.2533 110.948 15.72C111.055 15.6933 111.148 15.68 111.228 15.68C111.308 15.6533 111.362 15.64 111.388 15.64C111.495 15.64 111.548 15.6667 111.548 15.72C111.548 16.1733 109.295 17.04 104.788 18.32C104.255 19.36 103.802 20.2533 103.428 21C103.055 21.72 102.775 22.3067 102.588 22.76C101.895 24.52 101.548 26.1067 101.548 27.52C101.548 28.4 101.842 28.84 102.428 28.84C103.148 28.84 104.095 28.3333 105.268 27.32L107.068 25.76C107.148 25.76 107.188 25.8 107.188 25.88C107.188 25.96 107.148 26.08 107.068 26.24C106.642 26.88 105.962 27.56 105.028 28.28C103.935 29.1333 103.095 29.56 102.508 29.56ZM101.548 22.2C101.735 21.6667 101.935 21.12 102.148 20.56C102.388 20 102.642 19.4267 102.908 18.84C102.242 19 101.562 19.1467 100.868 19.28C100.202 19.4133 99.5351 19.5333 98.8684 19.64C100.255 20.36 101.148 21.2133 101.548 22.2ZM121.071 32.92C119.871 32.92 118.844 32.7067 117.991 32.28C116.844 31.6933 116.271 30.8667 116.271 29.8C116.271 28.6533 116.897 27.76 118.151 27.12C119.137 26.6133 120.271 26.36 121.551 26.36C121.791 26.36 121.911 26.4 121.911 26.48C121.911 26.5867 121.791 26.64 121.551 26.64C120.457 26.64 119.524 26.8533 118.751 27.28C117.737 27.8133 117.231 28.5733 117.231 29.56C117.231 30.4133 117.617 31.08 118.391 31.56C119.084 31.96 119.857 32.16 120.711 32.16C123.084 32.16 125.271 31.0667 127.271 28.88C127.937 28.16 128.617 27.2667 129.311 26.2C130.004 25.1333 130.711 23.8933 131.431 22.48C131.724 21.8667 132.137 21 132.671 19.88C133.231 18.7333 133.884 17.3067 134.631 15.6C135.271 14.1333 135.871 12.84 136.431 11.72C136.991 10.6 137.497 9.62667 137.951 8.8L135.151 8.2C134.884 9.29333 134.564 10.4933 134.191 11.8C133.817 13.1067 133.364 14.5067 132.831 16C133.124 15.8133 133.377 15.72 133.591 15.72C133.777 15.72 133.871 15.84 133.871 16.08C133.871 16.7733 133.097 17.8133 131.551 19.2C131.097 20.2667 130.577 21.3333 129.991 22.4C129.431 23.44 128.804 24.4667 128.111 25.48C126.164 28.3867 124.484 29.84 123.071 29.84C122.564 29.84 122.311 29.7067 122.311 29.44C122.311 29.3067 122.377 29.24 122.511 29.24C122.591 29.24 122.697 29.2533 122.831 29.28C122.964 29.3067 123.057 29.32 123.111 29.32C124.497 29.32 126.124 27.9067 127.991 25.08C129.271 23.16 130.351 21.12 131.231 18.96C130.911 17.8667 130.751 17.0267 130.751 16.44C130.751 15.56 130.911 15.12 131.231 15.12C131.604 15.12 131.937 15.5067 132.231 16.28C132.604 15.5067 133.004 14.44 133.431 13.08C133.857 11.72 134.284 10.0533 134.711 8.08C130.551 7.2 127.364 6.76 125.151 6.76C120.644 6.76 118.391 8.32 118.391 11.44C118.391 13.4933 119.577 15.3467 121.951 17C122.057 17.08 122.111 17.1467 122.111 17.2C122.111 17.28 122.057 17.32 121.951 17.32C121.924 17.32 121.857 17.2933 121.751 17.24C118.604 15.4533 117.031 13.3067 117.031 10.8C117.031 9.01333 117.884 7.70667 119.591 6.88C120.897 6.26667 122.537 5.96 124.511 5.96C126.857 5.96 130.311 6.4 134.871 7.28C134.951 6.74667 135.044 6.18667 135.151 5.6C135.284 5.01333 135.417 4.41333 135.551 3.8C135.631 3.82667 135.671 4.10667 135.671 4.64C135.671 5.33333 135.551 6.24 135.311 7.36L138.431 7.96C140.937 3.77333 143.684 1.68 146.671 1.68C148.484 1.68 149.391 2.44 149.391 3.96C149.391 4.25333 149.337 4.4 149.231 4.4C149.124 4.4 149.071 4.28 149.071 4.04C149.071 2.94667 148.337 2.4 146.871 2.4C144.844 2.4 142.711 4.38667 140.471 8.36C141.937 8.62667 143.204 8.82666 144.271 8.96C145.364 9.09333 146.271 9.16 146.991 9.16C149.711 9.16 151.071 8.48 151.071 7.12C151.071 6.90667 151.031 6.73333 150.951 6.6C150.871 6.44 150.831 6.33333 150.831 6.28C150.831 6.2 150.857 6.16 150.911 6.16C151.097 6.16 151.271 6.4 151.431 6.88C151.537 7.2 151.591 7.50667 151.591 7.8C151.591 9.50667 150.217 10.36 147.471 10.36C146.697 10.36 145.684 10.2667 144.431 10.08C143.177 9.89333 141.684 9.61333 139.951 9.24C139.737 9.66667 139.311 10.5333 138.671 11.84C138.031 13.12 137.191 14.84 136.151 17C135.004 19.3467 133.951 21.3733 132.991 23.08C132.031 24.76 131.164 26.1067 130.391 27.12C127.484 30.9867 124.377 32.92 121.071 32.92ZM144.76 29.16C144.04 29.16 143.48 28.7867 143.08 28.04C142.76 27.4267 142.6 26.72 142.6 25.92C142.6 25.52 142.626 25.08 142.68 24.6C142.76 24.0933 142.866 23.5467 143 22.96C141.32 26.6933 139.586 28.56 137.8 28.56C136.706 28.56 136.16 27.8533 136.16 26.44C136.16 24.1733 137.253 21.8267 139.44 19.4C141.653 16.92 143.853 15.68 146.04 15.68C147.08 15.68 147.6 16.1333 147.6 17.04C147.6 18.16 146.853 19.28 145.36 20.4C144.586 22.32 144.2 24.2933 144.2 26.32C144.2 27.84 144.533 28.6 145.2 28.6C146.133 28.6 147.733 26.92 150 23.56C150.16 23.3467 150.28 23.24 150.36 23.24C150.44 23.24 150.48 23.2933 150.48 23.4C150.48 23.5333 150.426 23.6667 150.32 23.8C147.92 27.3733 146.066 29.16 144.76 29.16ZM137.96 27.32C139.64 27.32 141.266 25.4533 142.84 21.72C142.626 21.7733 142.426 21.8267 142.24 21.88C142.08 21.9067 141.933 21.92 141.8 21.92C141.693 21.92 141.64 21.88 141.64 21.8C141.64 21.6667 141.826 21.5333 142.2 21.4L143.44 20.68C143.493 20.2267 143.773 19.64 144.28 18.92C144.786 18.1733 145.266 17.8 145.72 17.8C145.88 17.8 145.96 17.92 145.96 18.16C145.96 18.3467 145.893 18.64 145.76 19.04C146.186 18.4533 146.4 17.88 146.4 17.32C146.4 16.7067 146.12 16.4 145.56 16.4C144.226 16.4 142.48 17.72 140.32 20.36C138.16 22.9467 137.08 24.96 137.08 26.4C137.08 27.0133 137.373 27.32 137.96 27.32ZM155.924 15.52C155.39 15.52 155.124 15.24 155.124 14.68C155.124 14.4133 155.284 14.0933 155.604 13.72C155.924 13.32 156.23 13.0533 156.524 12.92C157.484 12.4667 158.057 12.24 158.244 12.24C158.297 12.24 158.324 12.2667 158.324 12.32C158.324 12.4267 158.03 12.8133 157.444 13.48C157.39 13.5333 157.19 13.9467 156.844 14.72C156.55 15.2533 156.244 15.52 155.924 15.52ZM134.844 44C132.55 44 131.404 43.04 131.404 41.12C131.404 39.44 132.284 37.6667 134.044 35.8C134.71 35.08 135.444 34.4 136.244 33.76C137.044 33.1467 137.897 32.5733 138.804 32.04C142.564 29.8267 146.964 28.6667 152.004 28.56C152.11 28.2133 152.204 27.8 152.284 27.32C152.39 26.8133 152.47 26.2533 152.524 25.64C152.577 25 152.644 24.4533 152.724 24C152.804 23.52 152.87 23.1467 152.924 22.88C152.15 23.5733 151.724 23.92 151.644 23.92C151.617 23.92 151.604 23.8933 151.604 23.84C151.604 23.6 151.817 23.2667 152.244 22.84C152.564 22.5467 152.87 22.24 153.164 21.92L154.164 18.76C154.324 18.4667 154.697 18.32 155.284 18.32C155.684 18.32 155.884 18.4533 155.884 18.72C155.884 19.04 155.777 19.4533 155.564 19.96C155.377 20.4667 155.177 20.7733 154.964 20.88C154.857 21.3067 154.737 21.8533 154.604 22.52C154.47 23.16 154.337 23.9067 154.204 24.76C153.91 26.52 153.67 27.7867 153.484 28.56C154.284 28.5867 155.017 28.6267 155.684 28.68C156.35 28.7067 156.95 28.7733 157.484 28.88C157.75 28.9067 157.884 28.9733 157.884 29.08C157.884 29.2933 157.644 29.4 157.164 29.4C157.137 29.4 157.07 29.3867 156.964 29.36C156.857 29.36 156.697 29.3467 156.484 29.32C156.03 29.2667 155.537 29.2267 155.004 29.2C154.497 29.1733 153.95 29.16 153.364 29.16C152.644 31.9867 151.03 34.6133 148.524 37.04C146.337 39.1733 143.764 40.9467 140.804 42.36C138.404 43.4533 136.417 44 134.844 44ZM135.284 42.88C138.777 42.88 142.19 41.4267 145.524 38.52C148.724 35.7467 150.844 32.64 151.884 29.2C149.777 29.28 147.497 29.68 145.044 30.4C142.59 31.1733 140.457 32.1067 138.644 33.2C137.924 33.6267 137.23 34.1067 136.564 34.64C135.87 35.2 135.217 35.8133 134.604 36.48C133.004 38.1067 132.204 39.5733 132.204 40.88C132.204 42.2133 133.23 42.88 135.284 42.88ZM158.853 28.76C158.56 28.76 158.413 28.68 158.413 28.52C158.413 27.56 158.8 26.3333 159.573 24.84C160.533 22.9733 161.093 21.76 161.253 21.2C161.52 20.2933 161.653 19.1733 161.653 17.84C161.573 18.1067 161.4 18.4933 161.133 19C160.867 19.5067 160.507 20.1467 160.053 20.92C159.627 21.6667 159.24 22.2933 158.893 22.8C158.573 23.28 158.307 23.6667 158.093 23.96C158.093 23.9867 158.067 24 158.013 24C157.88 24 157.813 23.9467 157.813 23.84L159.013 21.8C159.68 20.68 160.213 19.6533 160.613 18.72C161.013 17.76 161.307 16.9067 161.493 16.16C161.653 15.4667 161.973 15.12 162.453 15.12C162.933 15.12 163.173 15.68 163.173 16.8C163.173 17.3867 163.093 18.12 162.933 19C162.773 19.88 162.507 20.8933 162.133 22.04L160.453 27.28C161.44 26.5333 162.387 25.68 163.293 24.72C164.227 23.76 165.067 22.6533 165.813 21.4L166.053 21C166.347 19.0533 166.707 17.8267 167.133 17.32C167.24 17.1333 167.48 17.04 167.853 17.04C168.413 17.04 168.693 17.1867 168.693 17.48C168.693 18.28 168.44 19.0133 167.933 19.68C167.347 21.68 167.053 23.6267 167.053 25.52C167.053 26.8 167.453 27.44 168.253 27.44C168.653 27.44 169.12 27.2133 169.653 26.76C170.187 26.3067 170.44 26.08 170.413 26.08C170.493 26.08 170.533 26.16 170.533 26.32V26.4C169.627 27.68 168.613 28.32 167.493 28.32C166.347 28.32 165.773 27.3333 165.773 25.36C165.773 24.88 165.787 24.36 165.813 23.8C165.867 23.24 165.92 22.6267 165.973 21.96C164.96 23.88 163.293 25.7467 160.973 27.56C160.84 27.6667 160.653 27.8133 160.413 28C160.173 28.1867 159.907 28.3867 159.613 28.6C159.48 28.7067 159.227 28.76 158.853 28.76ZM179.488 29.28C177.942 29.28 177.168 28.16 177.168 25.92C177.168 24.8267 177.408 23.2 177.888 21.04C176.768 23.2267 175.875 24.76 175.208 25.64C173.795 27.6133 172.475 28.6 171.248 28.6C169.995 28.6 169.368 27.7733 169.368 26.12C169.368 23.5867 170.715 20.8933 173.408 18.04C176.102 15.1867 178.742 13.6133 181.328 13.32C181.915 11.9067 182.488 10.56 183.048 9.28C183.608 8 184.142 6.78667 184.648 5.64C184.862 5.18667 185.102 4.66667 185.368 4.08C185.662 3.49333 185.982 2.84 186.328 2.12C186.782 1.50666 187.502 1.2 188.488 1.2C188.862 1.2 189.048 1.29333 189.048 1.48C189.048 1.48 189.022 1.53333 188.968 1.64C188.755 2.06667 188.462 2.61333 188.088 3.28C187.742 3.94667 187.342 4.70667 186.888 5.56C186.168 6.94667 185.462 8.32 184.768 9.68C184.102 11.0133 183.462 12.3067 182.848 13.56C183.168 13.64 183.328 13.88 183.328 14.28C183.328 14.8133 182.995 15.6133 182.328 16.68C181.688 17.7467 181.155 18.44 180.728 18.76C180.462 19.2667 180.222 19.8533 180.008 20.52C179.795 21.1867 179.582 21.9067 179.368 22.68C179.182 23.4533 179.035 24.1733 178.928 24.84C178.848 25.5067 178.808 26.1067 178.808 26.64C178.808 27.9467 179.155 28.6 179.848 28.6C180.648 28.6 181.622 27.88 182.768 26.44C183.142 25.9867 183.862 24.9067 184.928 23.2C185.062 23.04 185.155 22.96 185.208 22.96C185.288 22.96 185.328 23 185.328 23.08C185.328 23.08 185.302 23.16 185.248 23.32C183.195 27.2933 181.275 29.28 179.488 29.28ZM171.448 27.12C173.395 27.12 175.302 24.9467 177.168 20.6C176.662 20.76 176.248 20.84 175.928 20.84C175.822 20.84 175.768 20.7867 175.768 20.68C175.768 20.52 175.955 20.3867 176.328 20.28C176.702 20.1467 177.142 19.9067 177.648 19.56C177.755 19.2933 177.862 19 177.968 18.68C178.102 18.3333 178.222 17.96 178.328 17.56C178.408 17.3467 178.502 17.24 178.608 17.24C178.795 17.24 178.888 17.36 178.888 17.6C178.888 17.84 178.768 18.28 178.528 18.92L179.248 18.4L180.928 14.24C178.955 14.6667 176.715 16.12 174.208 18.6C171.648 21.1867 170.368 23.44 170.368 25.36C170.368 26.5333 170.728 27.12 171.448 27.12ZM188.572 29.36C186.679 29.36 185.732 28.1333 185.732 25.68C185.732 25.3067 185.746 24.9067 185.772 24.48C185.826 24.0267 185.906 23.5467 186.012 23.04C185.906 22.96 185.799 22.8533 185.692 22.72C185.586 22.56 185.479 22.3733 185.372 22.16C185.479 22.1867 185.586 22.24 185.692 22.32C185.826 22.3733 185.986 22.4267 186.172 22.48C186.466 21.1467 187.266 19.8267 188.572 18.52C189.986 17.08 191.319 16.36 192.572 16.36C192.866 16.36 193.012 16.4 193.012 16.48C193.012 16.5333 192.826 16.6667 192.452 16.88C191.466 17.4133 190.532 18.24 189.652 19.36C188.772 20.5067 188.132 21.6267 187.732 22.72L187.812 22.8C189.092 22.8 190.426 22.1867 191.812 20.96C193.199 19.7333 193.892 18.48 193.892 17.2C193.892 16.8 193.786 16.44 193.572 16.12C193.359 15.8 193.066 15.64 192.692 15.64C192.159 15.64 191.559 15.8533 190.892 16.28C190.226 16.68 189.852 16.88 189.772 16.88C189.719 16.88 189.692 16.8667 189.692 16.84C189.692 16.52 190.159 16.1733 191.092 15.8C191.892 15.48 192.519 15.32 192.972 15.32C193.586 15.32 194.092 15.4933 194.492 15.84C194.919 16.1867 195.132 16.6667 195.132 17.28C195.132 18.6933 194.212 20.0667 192.372 21.4C190.719 22.5733 189.119 23.2267 187.572 23.36C187.359 24 187.252 24.6133 187.252 25.2C187.252 27.4133 188.052 28.52 189.652 28.52C190.879 28.52 192.159 27.9867 193.492 26.92C194.612 26.04 195.546 24.9733 196.292 23.72C196.532 23.3467 196.732 23.16 196.892 23.16C196.919 23.16 196.932 23.1867 196.932 23.24C196.932 23.3467 196.826 23.5867 196.612 23.96C195.786 25.2667 194.626 26.4667 193.132 27.56C191.506 28.76 189.986 29.36 188.572 29.36ZM200.369 29.36C198.476 29.36 197.529 28.1333 197.529 25.68C197.529 25.3067 197.542 24.9067 197.569 24.48C197.622 24.0267 197.702 23.5467 197.809 23.04C197.702 22.96 197.596 22.8533 197.489 22.72C197.382 22.56 197.276 22.3733 197.169 22.16C197.276 22.1867 197.382 22.24 197.489 22.32C197.622 22.3733 197.782 22.4267 197.969 22.48C198.262 21.1467 199.062 19.8267 200.369 18.52C201.782 17.08 203.116 16.36 204.369 16.36C204.662 16.36 204.809 16.4 204.809 16.48C204.809 16.5333 204.622 16.6667 204.249 16.88C203.262 17.4133 202.329 18.24 201.449 19.36C200.569 20.5067 199.929 21.6267 199.529 22.72L199.609 22.8C200.889 22.8 202.222 22.1867 203.609 20.96C204.996 19.7333 205.689 18.48 205.689 17.2C205.689 16.8 205.582 16.44 205.369 16.12C205.156 15.8 204.862 15.64 204.489 15.64C203.956 15.64 203.356 15.8533 202.689 16.28C202.022 16.68 201.649 16.88 201.569 16.88C201.516 16.88 201.489 16.8667 201.489 16.84C201.489 16.52 201.956 16.1733 202.889 15.8C203.689 15.48 204.316 15.32 204.769 15.32C205.382 15.32 205.889 15.4933 206.289 15.84C206.716 16.1867 206.929 16.6667 206.929 17.28C206.929 18.6933 206.009 20.0667 204.169 21.4C202.516 22.5733 200.916 23.2267 199.369 23.36C199.156 24 199.049 24.6133 199.049 25.2C199.049 27.4133 199.849 28.52 201.449 28.52C202.676 28.52 203.956 27.9867 205.289 26.92C206.409 26.04 207.342 24.9733 208.089 23.72C208.329 23.3467 208.529 23.16 208.689 23.16C208.716 23.16 208.729 23.1867 208.729 23.24C208.729 23.3467 208.622 23.5867 208.409 23.96C207.582 25.2667 206.422 26.4667 204.929 27.56C203.302 28.76 201.782 29.36 200.369 29.36ZM208.126 29.44C207.886 29.44 207.766 29.2667 207.766 28.92V28.84C207.873 28.4667 207.979 28 208.086 27.44C208.219 26.88 208.366 26.2267 208.526 25.48C208.686 24.7333 208.886 23.8 209.126 22.68C209.366 21.5333 209.659 20.2133 210.006 18.72L209.526 17.56C209.393 17.2133 209.286 16.96 209.206 16.8C209.153 16.64 209.126 16.56 209.126 16.56C209.126 16.3733 209.353 16.2 209.806 16.04C211.139 15.5333 211.993 15.28 212.366 15.28C212.766 15.28 212.966 15.4 212.966 15.64C212.939 15.56 212.259 17.2667 210.926 20.76V21.12C210.926 21.8667 210.806 22.24 210.566 22.24C210.539 22.24 210.499 22.2 210.446 22.12C210.233 22.7867 210.019 23.4267 209.806 24.04C209.619 24.6267 209.446 25.2133 209.286 25.8C209.873 24.84 210.473 23.92 211.086 23.04C211.726 22.16 212.379 21.3333 213.046 20.56C215.046 18.24 216.699 17.08 218.006 17.08C218.619 17.08 218.926 17.32 218.926 17.8C218.926 17.96 218.886 18.16 218.806 18.4C218.593 19.3067 218.299 20.4533 217.926 21.84C217.553 23.2 217.113 24.7867 216.606 26.6C218.153 25.4533 219.353 24.2267 220.206 22.92C220.339 22.76 220.433 22.68 220.486 22.68C220.566 22.68 220.606 22.7333 220.606 22.84C220.606 22.8933 220.566 22.9867 220.486 23.12C219.313 25.2 217.886 26.8533 216.206 28.08C216.099 28.24 215.926 28.32 215.686 28.32C215.499 28.32 215.406 28.2133 215.406 28C215.406 27.9467 215.446 27.7067 215.526 27.28C215.606 26.8267 215.713 26.2 215.846 25.4C215.979 24.8133 216.099 24.24 216.206 23.68C216.313 23.12 216.419 22.5467 216.526 21.96C216.713 20.6533 216.833 19.5067 216.886 18.52C216.299 18.7867 215.659 19.2267 214.966 19.84C214.299 20.4267 213.553 21.1733 212.726 22.08C211.979 22.9067 211.326 23.6933 210.766 24.44C210.233 25.16 209.793 25.84 209.446 26.48C209.073 27.2 208.793 27.9733 208.606 28.8C208.499 29.2267 208.339 29.44 208.126 29.44ZM210.246 17.64L210.606 16.32C210.473 16.4267 210.219 16.56 209.846 16.72L210.246 17.64Z" fill="#A6095E" fill-opacity="0.76"/>
</g>
<defs>
<filter id="filter0_i_1_2" x="0.0400085" y="0.919998" width="220.566" height="47.08" filterUnits="userSpaceOnUse" color-interpolation-filters="sRGB">
<feFlood flood-opacity="0" result="BackgroundImageFix"/>
<feBlend mode="normal" in="SourceGraphic" in2="BackgroundImageFix" result="shape"/>
<feColorMatrix in="SourceAlpha" type="matrix" values="0 0 0 0 0 0 0 0 0 0 0 0 0 0 0 0 0 0 127 0" result="hardAlpha"/>
<feOffset dy="4"/>
<feGaussianBlur stdDeviation="2"/>
<feComposite in2="hardAlpha" operator="arithmetic" k2="-1" k3="1"/>
<feColorMatrix type="matrix" values="0 0 0 0 0 0 0 0 0 0 0 0 0 0 0 0 0 0 0.25 0"/>
<feBlend mode="normal" in2="shape" result="effect1_innerShadow_1_2"/>
</filter>
</defs>
</svg>
