<svg width="1122" height="796" viewBox="0 0 1122 796" fill="none" xmlns="http://www.w3.org/2000/svg">
<path d="M635.154 574.423V561.523C634.804 562.873 633.629 564.723 631.629 567.073C629.679 569.423 626.954 571.548 623.454 573.448C620.004 575.298 615.904 576.223 611.154 576.223C605.604 576.223 600.479 574.948 595.779 572.398C591.129 569.798 587.379 566.073 584.529 561.223C581.729 556.323 580.329 550.473 580.329 543.673C580.329 536.873 581.729 531.048 584.529 526.198C587.379 521.298 591.129 517.548 595.779 514.948C600.479 512.348 605.604 511.048 611.154 511.048C615.904 511.048 620.004 511.948 623.454 513.748C626.904 515.498 629.629 517.523 631.629 519.823C633.679 522.123 634.829 524.048 635.079 525.598V512.848H643.479V574.423H635.154ZM588.804 543.673C588.804 548.873 589.929 553.348 592.179 557.098C594.429 560.848 597.329 563.723 600.879 565.723C604.479 567.723 608.254 568.723 612.204 568.723C616.554 568.723 620.429 567.698 623.829 565.648C627.229 563.598 629.904 560.698 631.854 556.948C633.854 553.198 634.854 548.773 634.854 543.673C634.854 538.573 633.854 534.148 631.854 530.398C629.904 526.648 627.229 523.748 623.829 521.698C620.429 519.598 616.554 518.548 612.204 518.548C608.254 518.548 604.479 519.573 600.879 521.623C597.329 523.623 594.429 526.498 592.179 530.248C589.929 533.998 588.804 538.473 588.804 543.673ZM659.47 574.423H651.07V512.848H659.47V523.948H659.095C659.295 522.648 660.195 520.998 661.795 518.998C663.445 516.948 665.67 515.123 668.47 513.523C671.27 511.873 674.57 511.048 678.37 511.048C681.27 511.048 683.745 511.423 685.795 512.173C687.895 512.873 689.345 513.598 690.145 514.348L686.395 521.623C685.745 520.973 684.52 520.323 682.72 519.673C680.97 519.023 678.845 518.698 676.345 518.698C672.895 518.698 669.895 519.848 667.345 522.148C664.845 524.448 662.895 527.198 661.495 530.398C660.145 533.548 659.47 536.448 659.47 539.098V574.423ZM736.545 574.423V561.523C736.195 562.873 735.02 564.723 733.02 567.073C731.07 569.423 728.345 571.548 724.845 573.448C721.395 575.298 717.295 576.223 712.545 576.223C706.995 576.223 701.87 574.948 697.17 572.398C692.52 569.798 688.77 566.073 685.92 561.223C683.12 556.323 681.72 550.473 681.72 543.673C681.72 536.873 683.12 531.048 685.92 526.198C688.77 521.298 692.52 517.548 697.17 514.948C701.87 512.348 706.995 511.048 712.545 511.048C717.295 511.048 721.395 511.948 724.845 513.748C728.295 515.498 731.02 517.523 733.02 519.823C735.07 522.123 736.22 524.048 736.47 525.598V512.848H744.87V574.423H736.545ZM690.195 543.673C690.195 548.873 691.32 553.348 693.57 557.098C695.82 560.848 698.72 563.723 702.27 565.723C705.87 567.723 709.645 568.723 713.595 568.723C717.945 568.723 721.82 567.698 725.22 565.648C728.62 563.598 731.295 560.698 733.245 556.948C735.245 553.198 736.245 548.773 736.245 543.673C736.245 538.573 735.245 534.148 733.245 530.398C731.295 526.648 728.62 523.748 725.22 521.698C721.82 519.598 717.945 518.548 713.595 518.548C709.645 518.548 705.87 519.573 702.27 521.623C698.72 523.623 695.82 526.498 693.57 530.248C691.32 533.998 690.195 538.473 690.195 543.673ZM787.41 512.848H798.51L765.51 542.173L800.235 574.423H789.06L758.31 545.998V574.423H749.76V471.223H758.31V538.648L787.41 512.848ZM845.992 574.423V561.523C845.642 562.873 844.467 564.723 842.467 567.073C840.517 569.423 837.792 571.548 834.292 573.448C830.842 575.298 826.742 576.223 821.992 576.223C816.442 576.223 811.317 574.948 806.617 572.398C801.967 569.798 798.217 566.073 795.367 561.223C792.567 556.323 791.167 550.473 791.167 543.673C791.167 536.873 792.567 531.048 795.367 526.198C798.217 521.298 801.967 517.548 806.617 514.948C811.317 512.348 816.442 511.048 821.992 511.048C826.742 511.048 830.842 511.948 834.292 513.748C837.742 515.498 840.467 517.523 842.467 519.823C844.517 522.123 845.667 524.048 845.917 525.598V512.848H854.317V574.423H845.992ZM799.642 543.673C799.642 548.873 800.767 553.348 803.017 557.098C805.267 560.848 808.167 563.723 811.717 565.723C815.317 567.723 819.092 568.723 823.042 568.723C827.392 568.723 831.267 567.698 834.667 565.648C838.067 563.598 840.742 560.698 842.692 556.948C844.692 553.198 845.692 548.773 845.692 543.673C845.692 538.573 844.692 534.148 842.692 530.398C840.742 526.648 838.067 523.748 834.667 521.698C831.267 519.598 827.392 518.548 823.042 518.548C819.092 518.548 815.317 519.573 811.717 521.623C808.167 523.623 805.267 526.498 803.017 530.248C800.767 533.998 799.642 538.473 799.642 543.673ZM855.982 512.848H868.807V487.573H877.282V512.848H894.082V520.573H877.282V557.098C877.282 561.198 878.032 564.123 879.532 565.873C881.032 567.623 882.907 568.498 885.157 568.498C887.307 568.498 888.932 568.123 890.032 567.373C891.132 566.623 891.782 566.123 891.982 565.873L895.957 572.398C895.657 572.648 894.982 573.098 893.932 573.748C892.882 574.348 891.507 574.898 889.807 575.398C888.107 575.948 886.057 576.223 883.657 576.223C879.507 576.223 875.982 574.898 873.082 572.248C870.232 569.548 868.807 565.248 868.807 559.348V520.573H855.982V512.848ZM910.043 576.223C907.693 576.223 905.693 575.398 904.043 573.748C902.443 572.098 901.643 570.123 901.643 567.823C901.643 565.423 902.443 563.398 904.043 561.748C905.693 560.098 907.693 559.273 910.043 559.273C912.393 559.273 914.393 560.098 916.043 561.748C917.693 563.398 918.518 565.423 918.518 567.823C918.518 570.123 917.693 572.098 916.043 573.748C914.393 575.398 912.393 576.223 910.043 576.223Z" fill="#700769"/>
<path d="M0 181.034C0 81.0517 81.0515 0 181.034 0V0C281.016 0 362.067 81.0515 362.067 181.034V544.979C362.067 644.961 281.016 726.012 181.034 726.012V726.012C81.0515 726.012 0 644.961 0 544.979V181.034Z" fill="#A1108E"/>
<ellipse cx="247.665" cy="499.06" rx="247.665" ry="296.939" fill="white"/>
<ellipse cx="288.14" cy="519.969" rx="288.14" ry="276.03" fill="#880A86"/>
</svg>
