<svg width="344" height="170" viewBox="0 0 344 170" fill="none" xmlns="http://www.w3.org/2000/svg">
<path d="M171.4 145V138.12C171.213 138.84 170.587 139.827 169.52 141.08C168.48 142.333 167.027 143.467 165.16 144.48C163.32 145.467 161.133 145.96 158.6 145.96C155.64 145.96 152.907 145.28 150.4 143.92C147.92 142.533 145.92 140.547 144.4 137.96C142.907 135.347 142.16 132.227 142.16 128.6C142.16 124.973 142.907 121.867 144.4 119.28C145.92 116.667 147.92 114.667 150.4 113.28C152.907 111.893 155.64 111.2 158.6 111.2C161.133 111.2 163.32 111.68 165.16 112.64C167 113.573 168.453 114.653 169.52 115.88C170.613 117.107 171.227 118.133 171.36 118.96V112.16H175.84V145H171.4ZM146.68 128.6C146.68 131.373 147.28 133.76 148.48 135.76C149.68 137.76 151.227 139.293 153.12 140.36C155.04 141.427 157.053 141.96 159.16 141.96C161.48 141.96 163.547 141.413 165.36 140.32C167.173 139.227 168.6 137.68 169.64 135.68C170.707 133.68 171.24 131.32 171.24 128.6C171.24 125.88 170.707 123.52 169.64 121.52C168.6 119.52 167.173 117.973 165.36 116.88C163.547 115.76 161.48 115.2 159.16 115.2C157.053 115.2 155.04 115.747 153.12 116.84C151.227 117.907 149.68 119.44 148.48 121.44C147.28 123.44 146.68 125.827 146.68 128.6ZM184.368 145H179.888V112.16H184.368V118.08H184.168C184.275 117.387 184.755 116.507 185.608 115.44C186.488 114.347 187.675 113.373 189.168 112.52C190.661 111.64 192.421 111.2 194.448 111.2C195.995 111.2 197.315 111.4 198.408 111.8C199.528 112.173 200.301 112.56 200.728 112.96L198.728 116.84C198.381 116.493 197.728 116.147 196.768 115.8C195.835 115.453 194.701 115.28 193.368 115.28C191.528 115.28 189.928 115.893 188.568 117.12C187.235 118.347 186.195 119.813 185.448 121.52C184.728 123.2 184.368 124.747 184.368 126.16V145ZM225.475 145V138.12C225.288 138.84 224.662 139.827 223.595 141.08C222.555 142.333 221.102 143.467 219.235 144.48C217.395 145.467 215.208 145.96 212.675 145.96C209.715 145.96 206.982 145.28 204.475 143.92C201.995 142.533 199.995 140.547 198.475 137.96C196.982 135.347 196.235 132.227 196.235 128.6C196.235 124.973 196.982 121.867 198.475 119.28C199.995 116.667 201.995 114.667 204.475 113.28C206.982 111.893 209.715 111.2 212.675 111.2C215.208 111.2 217.395 111.68 219.235 112.64C221.075 113.573 222.528 114.653 223.595 115.88C224.688 117.107 225.302 118.133 225.435 118.96V112.16H229.915V145H225.475ZM200.755 128.6C200.755 131.373 201.355 133.76 202.555 135.76C203.755 137.76 205.302 139.293 207.195 140.36C209.115 141.427 211.128 141.96 213.235 141.96C215.555 141.96 217.622 141.413 219.435 140.32C221.248 139.227 222.675 137.68 223.715 135.68C224.782 133.68 225.315 131.32 225.315 128.6C225.315 125.88 224.782 123.52 223.715 121.52C222.675 119.52 221.248 117.973 219.435 116.88C217.622 115.76 215.555 115.2 213.235 115.2C211.128 115.2 209.115 115.747 207.195 116.84C205.302 117.907 203.755 119.44 202.555 121.44C201.355 123.44 200.755 125.827 200.755 128.6ZM252.603 112.16H258.523L240.923 127.8L259.443 145H253.483L237.083 129.84V145H232.523V89.96H237.083V125.92L252.603 112.16ZM283.847 145V138.12C283.66 138.84 283.034 139.827 281.967 141.08C280.927 142.333 279.474 143.467 277.607 144.48C275.767 145.467 273.58 145.96 271.047 145.96C268.087 145.96 265.354 145.28 262.847 143.92C260.367 142.533 258.367 140.547 256.847 137.96C255.354 135.347 254.607 132.227 254.607 128.6C254.607 124.973 255.354 121.867 256.847 119.28C258.367 116.667 260.367 114.667 262.847 113.28C265.354 111.893 268.087 111.2 271.047 111.2C273.58 111.2 275.767 111.68 277.607 112.64C279.447 113.573 280.9 114.653 281.967 115.88C283.06 117.107 283.674 118.133 283.807 118.96V112.16H288.287V145H283.847ZM259.127 128.6C259.127 131.373 259.727 133.76 260.927 135.76C262.127 137.76 263.674 139.293 265.567 140.36C267.487 141.427 269.5 141.96 271.607 141.96C273.927 141.96 275.994 141.413 277.807 140.32C279.62 139.227 281.047 137.68 282.087 135.68C283.154 133.68 283.687 131.32 283.687 128.6C283.687 125.88 283.154 123.52 282.087 121.52C281.047 119.52 279.62 117.973 277.807 116.88C275.994 115.76 273.927 115.2 271.607 115.2C269.5 115.2 267.487 115.747 265.567 116.84C263.674 117.907 262.127 119.44 260.927 121.44C259.727 123.44 259.127 125.827 259.127 128.6ZM289.175 112.16H296.015V98.68H300.535V112.16H309.495V116.28H300.535V135.76C300.535 137.947 300.935 139.507 301.735 140.44C302.535 141.373 303.535 141.84 304.735 141.84C305.882 141.84 306.748 141.64 307.335 141.24C307.922 140.84 308.268 140.573 308.375 140.44L310.495 143.92C310.335 144.053 309.975 144.293 309.415 144.64C308.855 144.96 308.122 145.253 307.215 145.52C306.308 145.813 305.215 145.96 303.935 145.96C301.722 145.96 299.842 145.253 298.295 143.84C296.775 142.4 296.015 140.107 296.015 136.96V116.28H289.175V112.16ZM318.008 145.96C316.754 145.96 315.688 145.52 314.808 144.64C313.954 143.76 313.528 142.707 313.528 141.48C313.528 140.2 313.954 139.12 314.808 138.24C315.688 137.36 316.754 136.92 318.008 136.92C319.261 136.92 320.328 137.36 321.208 138.24C322.088 139.12 322.528 140.2 322.528 141.48C322.528 142.707 322.088 143.76 321.208 144.64C320.328 145.52 319.261 145.96 318.008 145.96Z" fill="#700769"/>
<path d="M0 43.9799C0 19.6905 19.6905 0 43.9799 0V0C68.2694 0 87.9599 19.6905 87.9599 43.9799V111.073C87.9599 135.362 68.2694 155.053 43.9799 155.053V155.053C19.6905 155.053 0 135.362 0 111.073V43.9799Z" fill="#A1108E"/>
<ellipse cx="60.1672" cy="106.583" rx="60.1672" ry="63.4166" fill="white"/>
<ellipse cx="70" cy="111.049" rx="70" ry="58.9511" fill="#880A86"/>
</svg>
